<?xml version="1.0" encoding="UTF-8" standalone="no"?>
<!-- Created with Inkscape (http://www.inkscape.org/) -->

<svg
   width="300.7025mm"
   height="45.618755mm"
   viewBox="0 0 150.7025 45.618755"
   version="1.1"
   id="svg5"
   xmlns="http://www.w3.org/2000/svg"
   >
  <defs
     id="defs2" />
  <g
     id="layer1"
     transform="translate(-11.801385,-125.69062)">
    <g
       id="g7911">
      <g
         id="g882"
         transform="matrix(0.09251542,0,0,0.09251542,11.353317,125.37177)">
	<g
   id="g840">
		<linearGradient
   id="SVGID_1_"
   x1="230.6091"
   y1="496.5499"
   x2="230.6091"
   y2="3.4500999">
			<stop
   offset="0"
   style="stop-color:#050606"
   id="stop826" />

			<stop
   offset="1"
   style="stop-color:#6C6D6F"
   id="stop828" />

		</linearGradient>

		<path
   class="st0"
   d="m 453.73,182.41 c -5.15,-30.2 -16.87,-57.51 -34.77,-82.2 -19.14,-26.4 -43,-47.47 -71.13,-64.12 C 316.65,17.64 283.08,7.12 247.23,4.18 211.69,1.26 177.11,7.15 144.07,20.2 99.71,37.71 62.15,64.67 33.6,103.45 17.44,125.4 7.27,149.68 5.1,176.97 c -1.17,14.66 1.62,28.76 9.14,41.52 10.03,17.01 25.89,25.65 44.68,29.39 11.5,2.29 36.15,0.51 37.15,0.69 -3.74,8.91 -5.55,17.71 -4.44,26.99 1.92,16.03 10.02,28.6 22.25,38.55 16.74,13.62 36.4,16.69 56.92,13.27 18.3,-3.06 31,6.26 38.51,18.38 6.8,10.96 9.34,23.16 9.82,35.68 0.58,15.44 0.61,30.93 0.01,46.37 -0.35,9.02 -1.76,18.13 -3.82,26.94 -5.52,23.63 -19.2,34.21 -41.78,36.95 -10.28,1.25 -20.63,2.02 -30.97,2.51 -12.05,0.57 -24.12,0.57 -36.18,0.88 -1.49,0.04 -2.96,0.49 -4.44,0.75 0.05,0.23 0.1,0.47 0.14,0.7 84.12,0 168.25,0 252.37,0 -1.95,-1.26 -3.95,-1.48 -5.96,-1.54 -20.52,-0.54 -41.05,-1.01 -61.37,-4.2 -15.63,-2.45 -26.75,-10.86 -32.58,-25.85 -4.03,-10.35 -6.1,-21.07 -6.64,-32.14 -0.99,-20.11 -1.43,-40.23 0.71,-60.29 0.55,-5.15 1.7,-10.39 5.18,-14.83 4.87,1.33 8.14,4.61 11.42,7.86 3.91,3.87 7.71,7.86 11.78,11.56 10.71,9.73 23.43,14.8 37.78,16.11 13.75,1.26 27,-0.72 39.77,-5.8 31.69,-12.61 50.79,-35.36 55.82,-70.22 0.9,-0.83 1.8,-1.72 2.77,-2.53 16.85,-14.15 27.7,-32.33 34.93,-52.81 9.17,-25.92 10.26,-52.42 5.66,-79.45 z M 192.26,19.42 c -3.94,7.65 -7.83,15.21 -11.88,23.09 -3.53,-4.43 -1.94,-8.36 0.95,-12.63 l -1.18,-0.46 c -1.22,1.53 -2.29,2.97 -3.52,4.52 -0.49,-0.94 -0.57,-1.09 -1.62,-3.07 -0.82,1.48 -1.53,3.09 -1.11,3.86 4.51,8.23 4.7,14.99 3.32,23.93 -0.38,2.45 -0.45,6.23 -0.45,10 -11.77,-8.27 -8.73,-20.5 -8.85,-29.42 -3.43,5.59 -1.93,11.36 -2.21,17.96 -5.69,-3.83 -7.17,-8.91 -5.63,-15.23 2.77,-11.37 17.28,-25.53 32.18,-22.55 z M 83.27,79.64 c 0.61,-6.52 3.32,-12.24 7.5,-17.18 4.71,-5.56 10.34,-10.11 17.27,-12.53 8.61,-3 12.39,-0.41 13.11,8.58 0.75,9.36 -2.15,17.88 -9.85,24.63 -0.54,-3.31 -0.69,-6.63 -0.96,-9.76 -0.25,-3.02 -0.54,-7.24 -0.91,-9.86 -0.77,1.73 -1.55,3.88 -1.13,15.23 -5.14,-3.71 -6.1,-9.04 -8.58,-13.03 -0.29,4.59 1.99,9.73 4.67,12.78 3.08,3.5 3.85,8.4 1.8,13.45 -1.62,4.01 -2.27,8.42 -3.43,12.99 -9.58,-7.46 -8.8,-16.69 -5.24,-26.84 -1.13,1.78 -2.25,3.56 -3.67,5.8 -0.63,-2.66 -1.14,-4.83 -1.65,-6.99 -0.37,0.05 -0.73,0.1 -1.1,0.14 0.54,5.58 1.08,11.17 1.66,17.16 C 84.91,90.5 82.59,86.86 83.27,79.64 Z m 61,24.03 c -6.76,-3.1 -8.79,-9.71 -12.85,-15.07 1.14,3.21 2.28,6.42 3.65,10.27 -4.72,-2.62 -8.77,-6.53 -15.76,-5.82 2.01,1.19 2.91,1.84 3.9,2.28 1.91,0.86 3.99,1.4 5.79,2.44 10.2,5.92 20.25,12.12 30.53,17.89 7.9,4.44 15.03,9.67 19.14,17.91 5.5,11.02 14.45,17.17 25.98,20.53 9.59,2.79 15.56,10.02 16.87,19.45 -6.93,-4.7 -13.71,-9.3 -20.96,-14.22 0.48,1.01 0.77,1.81 1.22,2.52 0.56,0.87 1.25,1.65 2.27,2.96 -9.28,0.28 -13.61,-5.99 -18.3,-11.76 2.76,7.66 7.57,12.78 15.79,14.4 15.29,3.01 21.38,9.35 24.37,24.9 0.31,1.6 0.55,3.21 0.06,5.11 -0.93,-1.33 -1.95,-2.61 -2.79,-4 -4.95,-8.17 -12.17,-13.34 -21.19,-16.15 -1.61,-0.5 -3.23,-0.97 -4.84,-1.47 -18.43,-5.74 -26.07,-16.81 -24.51,-36.12 -2.82,1.92 -1.84,5.13 -3.41,7.4 -6.9,-5.48 -6.96,-12.59 -4.28,-20.43 -0.53,0.01 -1.06,0.01 -1.59,0.02 -1.06,3.94 -2.11,7.89 -3.23,12.05 -7.99,-3.04 -10.98,-9.98 -13.68,-17.85 -0.48,4.5 -0.48,4.5 3.14,13.57 -11.71,-2.64 -12.97,-12.59 -15.38,-21.67 -0.41,0.13 -0.82,0.26 -1.23,0.39 0.34,2.41 0.69,4.82 1.05,7.37 -8.65,-2.45 -11.35,-9.57 -14.18,-16.66 -0.78,6.03 1.75,10.76 5.9,14.44 4.89,4.32 9.87,8.38 13.8,13.76 1.83,2.5 5.36,4.19 8.45,5.26 11.76,4.06 18.97,12.16 22.68,24.78 -6.84,-1.16 -13.42,-1.87 -19.76,-3.49 -4.03,-1.03 -5.36,-5.13 -6.39,-8.85 -0.44,-1.57 -0.34,-3.29 -0.53,-5.43 -1.61,4.94 -1.59,5.69 0.3,11.84 -5.32,-0.53 -9.44,-3.09 -11.51,-8.04 -3.41,-8.14 -8.3,-15.12 -14.95,-20.89 -0.63,-0.55 -1.07,-1.31 -1.67,-1.9 -13.3,-12.92 -8.43,-29.55 -0.33,-39.42 3.68,-4.49 8.47,-6.98 14.26,-7.08 13.64,-0.23 22.02,5.16 25.12,18.14 1.1,4.61 2.81,9.07 4.25,13.6 -8.67,-2.45 -12.99,-3.79 -14.58,-18.03 -2.39,3.97 -0.23,7.45 -0.62,11.07 z M 78.12,72.4 C 77.69,76.95 77.37,80.23 77,84.17 73.45,83.92 70.05,83.69 65.93,83.4 c 3.46,-4.59 7.14,-7.98 12.19,-11 z m -31.54,38.82 c 0.51,-13.89 12.55,-24.21 25.98,-22.15 3.02,0.46 6.14,1.77 8.72,3.44 7.5,4.86 14.14,10.75 18.97,18.42 3.14,4.99 6.19,10.03 9.32,15.1 -7.72,1.45 -9.99,-7.08 -16.39,-8.42 1.8,2.05 3.6,4.1 6.38,7.27 -5.22,-0.59 -8.98,-1.02 -14.13,-1.6 4.18,3.23 7.83,3.3 11.27,4.01 3.5,0.73 7.02,1.41 10.49,2.3 11.25,2.9 17.92,10.48 21.61,21.64 -8.69,-0.19 -13.39,-6.47 -19.06,-11.28 1.12,4.76 5.08,7.22 8.75,10.83 -2.18,0.33 -3.83,0.58 -5.97,0.9 0.9,0.73 1.37,1.43 1.83,1.43 10.42,-0.1 19.66,4.2 29.24,7.44 4.13,1.4 8.65,1.96 13.04,2.25 9.58,0.63 17.52,4.19 23.46,11.81 -5.66,1.01 -11.32,0.06 -20.52,-3.58 1.52,3.91 5.95,3.27 7.75,5.94 -13.98,3.93 -19.45,2.21 -27.61,-10.07 -0.32,1.25 -0.6,2.33 -0.88,3.41 -4.26,-2.09 -8.27,-4.3 -12.5,-6 -1.6,-0.64 -3.68,-0.1 -5.65,0.69 1.55,0.43 3.1,0.86 4.64,1.29 1.41,0.4 3,0.51 4.19,1.26 5.12,3.25 10.09,6.74 15.18,10.03 2.43,1.57 5.01,2.9 7.5,4.33 -6.41,2.9 -11.55,3.12 -21.72,0.78 -15.73,-3.62 -25.6,-13.19 -29.27,-29.02 -0.93,-4 -1.91,-7.98 -2.86,-11.97 -0.49,0.11 -0.98,0.21 -1.46,0.32 1.11,5.7 2.22,11.41 3.33,17.11 -0.27,0.25 -0.54,0.51 -0.81,0.76 -4.33,-3.74 -8.72,-7.41 -12.93,-11.28 -1.02,-0.94 -1.65,-2.47 -2.11,-3.85 -2.15,-6.55 -1.91,-8.76 4.67,-13.15 -4.77,-0.23 -5.34,0.21 -8.82,7.05 -5.7,-5.1 -7.93,-11.24 -6.66,-18.58 0.72,-4.18 3.73,-6.47 7.48,-7.92 2.29,-0.88 4.6,-1.71 6.9,-2.57 -0.16,-0.51 -0.32,-1.03 -0.48,-1.54 -3.18,0.94 -6.53,1.87 -10.75,3.11 1.61,-3.25 2.74,-5.57 4.02,-8.17 -3.83,2.27 -6.87,7.49 -9.32,14.7 -2.09,6.15 0.07,13 1.29,18.27 -11.24,-2.99 -10.23,-13.07 -12.49,-20.69 -2.38,10.4 2.49,19.5 10.79,23.31 4.47,2.05 7.55,4.72 9.97,9.83 -3.61,-0.58 -6.47,-1.1 -9.61,-1.41 -5.06,-0.51 -9.43,1.76 -9.4,2.21 1.06,0 2.12,0.04 3.17,-0.01 8.41,-0.41 15.98,2.11 22.29,7.52 4.79,4.11 9.28,8.68 13.32,13.52 8.02,9.6 17.64,16.29 31.58,18.65 -6.05,3.51 -11.13,6.17 -17.12,5.47 -6.95,-0.81 -8.67,-7.23 -11.9,-12.9 0.6,8.93 4.09,13.3 12.78,16.55 -5.93,3.93 -11.5,3.48 -17.29,0.06 -8.1,-4.79 -7.15,-12.04 -6.18,-19.74 -1.06,2.38 -2.13,4.76 -3.29,7.37 -7.96,-6.22 -6.63,-16.09 -9.48,-24.16 -0.46,0.14 -0.91,0.28 -1.37,0.42 0.64,4.02 1.29,8.05 1.94,12.12 -7.56,-1.38 -10.07,-4.01 -12.7,-13.16 -1.62,5.6 -0.1,9.2 4.92,12.86 2.34,1.7 6.01,1.95 6.7,5.6 -6.52,-0.42 -12.97,-1.05 -18.19,-5.7 -5.6,-4.99 -8.44,-11.01 -7.18,-18.63 0.31,-1.84 0.65,-3.67 0.5,-5.7 -2.16,2.52 -2.45,5.88 -3.71,10.01 -4.88,-12.46 -3.58,-23.95 0.19,-34.99 3.67,-10.76 7.99,-21.58 19.13,-27.37 -12.06,2.67 -16,13.37 -21.93,22.64 -2.46,-2.69 -1.65,-5.74 -1.55,-8.42 z m 25.18,91.81 c -11.32,-0.42 -19.55,-10.98 -17.12,-22.55 8.22,1.12 16.69,1.17 24.59,4.19 2.75,1.05 5.45,3.39 7.15,5.84 3.62,5.25 6.81,10.73 14.44,13.33 -6.89,2.93 -12.58,2.9 -18.4,2.3 -6.91,-0.71 -9.8,-5.56 -11.37,-11.91 -0.49,0.3 -0.98,0.6 -1.48,0.9 0.73,2.62 1.46,5.25 2.19,7.9 z M 41.22,113.05 c 1.28,6.91 3.29,13.19 2.95,19.97 -0.3,5.91 -0.41,11.85 -0.14,17.76 0.32,7.22 3.52,13.39 7.98,18.95 1.4,1.75 2.81,3.49 4.7,5.85 -6.88,-0.83 -12.96,-2.5 -15.77,-8.08 -2.5,-4.97 -3.03,-10.93 -4.5,-16.71 -2.75,5.84 -0.44,12.25 1.16,17.87 -5.19,-2.09 -8.55,-9.13 -8.15,-14.44 0.37,-4.98 1.91,-8.79 3.69,-13.48 1.65,-4.34 3.55,-7.34 4.77,-11.84 -3.45,3.73 -4.69,6.9 -6.39,10.61 -1.74,3.8 -3.49,8.46 -5,12.59 -1.89,-12.71 3.09,-28.28 14.7,-39.05 z m -17.68,99.91 c 6.44,2.09 19.25,14.26 27.64,18.76 -9.75,0.46 -19.87,-6.74 -27.64,-18.76 z m 9.86,-7.33 c -0.41,-2 -1.08,-2.84 -2.63,-4.03 0.51,3.44 1.33,6.97 1.95,11.14 -9.59,-4.92 -14.94,-12.13 -16.3,-21.89 -1.79,-12.76 -0.15,-25.29 4.09,-37.46 0.18,-0.53 0.81,-0.91 1.41,-1.54 2.6,15.24 13.25,22.47 25.89,26.54 1.54,6.72 2.7,12.81 4.17,19.23 -5.26,-0.88 -11.07,-3.14 -16.45,-6.41 -5.78,-3.51 -9.59,-10.24 -11.1,-15.77 -0.88,5.78 2.84,10.03 5.35,15.12 -2.53,0.81 -4.6,1.78 -7.15,2.6 l 0.33,1.2 c 2.7,-0.58 6.59,-1.15 9.86,-1.89 6.55,4.56 13.84,7.22 22.1,8.59 2.26,0.38 4.25,2.41 6.59,3.82 -6.26,4.42 -12.7,4.07 -19.52,3.18 3.46,2.84 5.83,3.51 10.19,2.84 1.45,-0.22 2.96,-0.54 4.24,-1.2 8.02,-4.07 15.53,-0.82 24.12,1.26 -8.92,8 -18.16,9.73 -28.52,6.06 5.43,4.8 14.12,5.35 21.72,1.68 2.66,-1.28 5.18,-2.85 7.71,-4.38 3,-1.81 6.16,-2.53 9.68,-1.98 -4.36,11.87 -13.23,17.63 -25.57,17.63 -12.76,0 -29.14,-9.73 -32.16,-24.34 z m 137.53,110.98 c -4.55,0.48 -9.1,0.91 -13.31,1.32 2.69,-3.18 4.92,-5.95 7.29,-8.61 5.12,-5.75 11,-5.66 15.97,0.26 1.33,1.58 2.41,3.37 3.89,5.47 -4.92,0.56 -9.38,1.09 -13.84,1.56 z m 53.73,2.33 c -0.18,3.57 -0.03,7.16 -0.49,10.8 -4.15,-5.71 -5.5,-12.12 -5.91,-19.2 -0.65,1.82 -1.29,3.65 -2.04,5.76 -6.89,-5.63 -10.08,-13.09 -10.75,-21.51 -0.64,-8.02 -2.7,-15.32 -7.35,-21.95 -1.71,-2.45 -2.78,-5.35 -4.58,-7.87 -0.19,8.41 8.44,13.84 7.95,22.29 -4.97,-3.57 -10.1,-6.73 -14.53,-10.67 -2.11,-1.88 -2.88,-5.26 -4.22,-7.88 -0.22,0.46 -0.69,1.48 -1.51,3.24 -2.49,-2.95 -4.74,-5.62 -7.89,-9.35 0.74,2.41 0.86,3.8 1.53,4.83 3.5,5.37 7.87,9.83 13.39,13.28 3.35,2.09 6.71,4.59 9.12,7.65 2.11,2.67 3.09,6.32 4.2,9.67 1.03,3.11 1.58,6.38 2.33,9.58 -6.12,-1.07 -8.92,-6.15 -12.38,-10.97 0.02,4 0.98,6.42 4.18,9.21 2.54,2.21 5.39,4.07 8.18,5.98 9.9,6.79 15.3,16.15 16.41,28.62 -0.33,-0.02 -0.84,0.08 -0.95,-0.08 -5.65,-8.61 -12.86,-15.65 -21.34,-21.43 -7.88,-5.37 -12.65,-13 -15.14,-22.02 -1.24,-4.5 -3.86,-7.72 -6.87,-11.1 -2.76,-3.1 -4.32,-7.26 -6.19,-10.56 -0.06,1.24 -0.16,3.29 -0.27,5.61 -5.81,-1.44 -5.98,-6.63 -7.68,-11.42 -1.08,5.7 0.32,9.72 4.1,12.57 2.19,1.65 4.63,2.99 6.78,4.69 4.77,3.77 6.37,6.94 6.72,12.22 -5.11,-2.3 -10.28,-5.18 -15.81,-6.98 -7.62,-2.48 -12.55,-7.53 -16.2,-14.27 -0.97,-1.8 -1.95,-3.59 -3.26,-6.02 -1.82,3.4 1.05,5.14 1.16,7.87 -1.34,-0.2 -2.58,-0.38 -4.61,-0.69 5.33,4.58 10.1,8.67 15.37,13.19 -14.63,1.74 -22.65,-3.94 -28.98,-19.26 0.28,2.61 0.56,5.22 0.84,7.83 -7.76,0.91 -10.6,-1.68 -15.77,-14.08 -0.82,7.09 3.58,14.68 10.53,16.71 4.46,1.3 7.89,3.49 11.14,6.72 2.77,2.74 6.35,4.66 10.98,7.94 -8.61,0.48 -15.72,0.88 -22.83,1.28 -0.07,0.2 -0.15,0.4 -0.22,0.6 1.18,0.43 2.33,1.11 3.55,1.25 7.01,0.86 13.91,0.08 20.74,-1.65 8.12,-2.05 16.23,-3.17 24.1,1.01 0.54,0.28 0.97,0.76 1.68,1.34 -6.35,4.02 -13.44,3.4 -21.07,3.89 3.65,3.6 7.56,1.13 11.73,2.66 -1.97,1.93 -3.39,4.04 -5.38,5.11 -4.73,2.53 -9.76,3.58 -15.29,2.45 -23.38,-4.77 -40.89,-26.3 -39.46,-49.08 0.41,-6.59 2.25,-12.78 7.67,-18.08 0.83,1.68 1.44,2.92 2.05,4.16 4.27,8.68 11.13,13.61 20.84,14.4 11.7,0.95 22.62,-2.39 33.38,-6.29 8.67,-3.15 17.48,-4.91 26.71,-4.13 14.62,1.24 26.96,10.68 29.38,23.79 0.75,4.05 0.56,8.28 0.83,12.9 -7.56,-5.38 -8.76,-7.35 -12.45,-20.13 -1.68,6.36 0,11.79 3.93,15.41 9.1,8.39 10.49,18.81 9.92,30.16 z m -64.05,-86.36 c 5.5,1.94 9.11,5.67 12.09,10.59 1.9,3.15 4.92,5.63 7.53,8.52 -7.27,2.47 -14.62,1.46 -21.77,-1.65 -7.23,-3.15 -13.1,-7.66 -14.4,-16.29 -1,5.41 -1,5.41 3.03,12.52 -8.7,1.47 -15.49,-1.49 -21.02,-8.16 1.37,4.81 4.24,8.7 8.91,9.41 9.81,1.5 19.35,3.58 28.42,7.68 1.1,0.5 2.47,0.38 3.82,0.57 -6.61,4.79 -12.95,5.41 -31.58,2.86 3.05,1.85 5.08,3.08 7.27,4.41 -9.78,3.54 -21.71,-1.46 -25.51,-10.48 -1.76,-4.17 -1.75,-8.45 0.64,-12.19 1.9,-2.97 4.34,-5.84 7.15,-7.92 7.53,-5.56 15.98,-9.4 25.09,-11.71 6.79,-1.72 13.02,-0.82 18.38,3.94 6.1,5.41 12.92,9.32 20.87,11.49 7.97,2.18 12.43,8.18 15.65,16.1 -6.72,-0.95 -12.92,-1.79 -19.11,-2.73 -5.13,-0.78 -9.05,-3.55 -11.58,-8 -3.08,-5.39 -7.33,-9.1 -13.24,-11.14 -2.23,-0.77 -4.13,-2.49 -6.96,-4.26 1.14,4 3.63,5.49 6.32,6.44 z m 64.5,7.11 c -5.39,-10.01 -11.64,-19.09 -10.95,-30.88 0.17,-2.93 -1.22,-5.94 -2.95,-8.68 0.53,4.17 1.13,8.34 1.55,12.53 0.44,4.34 0.7,8.7 1.04,13.16 -5.19,-3.81 -10.4,-7.68 -11.1,-15.32 -0.22,-2.35 -1.75,-4.71 -3.11,-6.79 -2.97,-4.52 -6.22,-8.86 -9.32,-13.22 -0.16,0.76 -0.41,2.04 -0.73,3.59 -3.4,-0.76 -6.78,-1.52 -10.15,-2.28 -0.14,0.43 -0.28,0.86 -0.42,1.3 2.62,1.03 5.23,2.08 7.85,3.09 8.98,3.47 13.93,10.9 13.93,21.32 -8.04,0.57 -11.35,-4.77 -14.01,-12 -0.17,7.41 2.61,11.92 9.37,14.21 8.26,2.8 14.05,8.49 19.22,14.98 5.74,7.21 8.13,18.21 6.34,27.92 -5.35,-4.19 -9.64,-8.95 -12.13,-15.07 -2.88,-7.11 -7.74,-12.27 -13.7,-17.03 -6.23,-4.97 -11.7,-10.97 -17.1,-16.9 -1.89,-2.07 -2.59,-5.25 -3.75,-7.96 -1.31,-3.06 -2.52,-6.16 -3.77,-9.24 -0.41,0.14 -0.82,0.28 -1.23,0.42 0.65,1.95 1.29,3.91 1.97,5.97 -4.74,-1.99 -9.37,-3.92 -14,-5.86 -0.23,0.45 -0.46,0.9 -0.69,1.36 1.05,0.63 2.03,1.49 3.17,1.86 6.58,2.14 11.38,6.06 14.3,12.54 1.16,2.58 3.64,4.58 5.57,6.79 2.46,2.81 4.98,5.57 8.27,9.24 -6.44,-0.23 -9.71,-3.69 -13.32,-6.41 -3.55,-2.67 -7.01,-5.46 -10.42,-8.3 -3.48,-2.91 -6.85,-5.94 -10.86,-8.58 0.88,1.74 1.77,3.48 2.66,5.24 -10.43,1.81 -12.95,0.71 -18.76,-8.44 -1.43,3.22 1.63,5.05 1.86,7.99 -5.53,1.77 -10.35,-0.88 -16.06,-3.31 5.24,8.11 12.3,5.06 19.37,7.67 -6.44,2.1 -10.8,3.07 -16.36,4.58 -9.44,2.56 -16.69,3.53 -24.98,-1.85 2.19,5.05 5.21,5.93 14.24,6.72 -7.63,9.98 -27.36,15.67 -45.78,13.54 3.06,-1.21 4.76,-1.83 6.42,-2.55 6.81,-2.96 12.21,-7.58 15.82,-14.09 3.6,-6.47 8.92,-10.37 16.02,-12.49 4.61,-1.38 9.01,-3.63 13.28,-5.92 8.82,-4.73 17.99,-8.27 27.81,-10.34 7,-1.48 13.89,-3.55 20.77,-5.57 12.16,-3.56 24.15,-4.46 35.61,2.2 9.81,5.7 16.09,14.17 18.68,25.26 1.96,8.29 2.75,16.63 0.53,25.6 z m 1.32,-78.41 c -9.01,-8.14 -11.54,-20.49 -21.17,-27.41 2.89,4.65 5.77,9.3 9.18,14.78 -14.46,-1.63 -19.72,-10.67 -22.1,-22.53 -0.99,5.33 0.06,9.11 4.33,16.98 -7.31,-2.21 -11.98,-9.41 -11.21,-17.32 0.21,-2.11 0.93,-4.26 0.66,-6.29 -0.58,-4.34 -1.13,-8.81 -2.66,-12.85 -1.92,-5.07 -4.81,-9.77 -7.31,-14.62 -0.06,-0.12 -0.37,-0.12 -1.2,-0.35 0.71,2.34 1.32,4.38 2.03,6.74 -4.99,-2.14 -6.39,-6.71 -9.05,-11.83 -0.82,4.63 1.02,6.92 2.61,9.2 0.95,1.37 2.15,2.66 3.47,3.67 8.9,6.77 9.91,15.6 6.93,26.04 -4.57,-4.4 -9.28,-8.23 -13.12,-12.8 -5.36,-6.38 -7.92,-13.81 -6.17,-22.4 1.2,-5.88 1.97,-11.84 3.12,-18.89 -1.41,2.54 -2.38,4.29 -3.82,6.89 -1.99,-6.48 -6.58,-9.6 -11.16,-13 -6.36,-4.73 -7.84,-12.25 -9.35,-19.53 -0.42,-2.01 -0.41,-4.11 -0.98,-6.16 -2.03,4.95 0.53,9.85 0.52,14.78 -0.49,0.44 -0.98,0.87 -1.47,1.31 -1.57,-2.34 -3.15,-4.68 -4.72,-7.02 0.77,7.43 9.02,9.07 10.99,16.47 -4.53,-1.05 -8.77,-2.04 -13.02,-3.03 3.76,3.65 8.55,4.59 13.21,5.83 9.17,2.44 13.52,8.62 12.76,18.27 -0.03,0.37 -0.35,0.72 -0.85,1.72 -0.95,-1.23 -1.77,-2.24 -2.54,-3.28 -3.15,-4.27 -7.34,-6.93 -12.49,-8.13 -0.62,-0.14 -1.26,-0.17 -1.88,-0.31 -10.35,-2.43 -12.87,-5.47 -13.38,-16.11 -0.02,-0.42 -0.01,-0.85 -0.05,-1.27 -1.76,-18.33 6.02,-22.73 17.49,-27.79 5.89,-2.6 11.95,-5.19 18.82,-5.48 -2.14,3.78 -4.4,7.1 -6,10.72 -4.27,9.65 -2.78,16.86 4.66,24.26 1.5,1.49 3.12,2.87 4.63,4.35 5.2,5.1 9.34,10.96 11.89,17.81 3.89,10.44 10.39,18.22 21.11,22.21 7.21,2.68 12.4,7.93 16.26,14.47 0.67,1.14 0.82,2.59 1.18,3.91 -3.38,-0.92 -6.92,-1.49 -10.04,-2.95 -2.12,-0.99 -3.83,-3.14 -5.34,-5.07 -0.91,-1.16 -1.09,-2.89 -1.85,-5.09 -2.26,3.88 1.01,6.06 1.05,9.48 -4.55,-2.3 -7.11,-5.78 -9.68,-9.86 0,0.82 -0.25,1.74 0.04,2.44 2.62,6.4 7.26,10.53 14.25,10.96 10.2,0.63 15.58,7 18.76,15.57 2.55,6.95 3.36,14.35 2.66,22.51 z m 1.99,-103.54 c -0.22,6.98 -0.17,13.97 -0.4,20.95 -0.08,2.48 -0.63,4.94 -1.05,7.97 -4.38,-7 -5.89,-19.75 -3.17,-27.09 -3.74,2.26 -4.61,5.35 -4.35,8.65 0.25,3.31 0.99,6.89 0.97,10.31 -2.58,-2.45 -7.89,-10.08 -7.17,-14.86 0.86,-5.69 2.93,-11.2 3.98,-17.06 -0.91,1.24 -1.82,2.49 -3,4.1 -1.97,-4.82 -4.25,-6.96 -5.11,-10.67 -0.72,-3.11 -2.07,-6.06 1.17,-11.93 l -1.72,0.13 c -1.29,2.59 -1.71,3.56 -2.66,5.46 -2.21,-1.58 -4.17,-2.98 -6.12,-4.37 -0.19,0.2 -0.38,0.4 -0.57,0.6 2.14,2.76 4.29,5.52 6.43,8.27 -0.25,0.31 -0.51,0.61 -0.76,0.92 -3.39,-0.65 -6.79,-1.3 -10.18,-1.95 -0.11,0.39 -0.22,0.77 -0.33,1.16 3.19,1.09 6.46,1.96 9.55,3.29 5.83,2.5 9.7,11.98 5.77,17.13 -6.63,0.14 -8.08,-4.87 -9.22,-11.4 -1.71,7.99 -0.43,10.01 8.25,15.08 0.81,3.42 1.62,6.83 2.5,10.55 -3.12,-1.27 -6.26,-2.02 -8.78,-3.71 -2.32,-1.55 -4.73,-3.83 -6.11,-6.26 -1.42,-2.51 -1.71,-5.55 -2.44,-8.41 -0.87,-3.4 -3.12,-5.08 -3.58,-4.9 1.56,6.39 3.26,11.81 5.42,18.29 -4.5,0.85 -6.41,-2.71 -10.13,-4.64 1.1,2.86 3.45,4.87 5.3,5.89 3.11,1.71 4.85,2.31 8.26,3.18 6.14,1.57 11.44,4.33 15.68,9.01 10.34,11.41 15.59,27.37 10.2,46.97 -3.86,-8.15 -9.69,-14.84 -7.87,-24.32 -0.72,2.09 -1.44,4.18 -2.16,6.28 -7.15,-6.11 -4.34,-10.59 1.45,-18.89 -4.98,2.34 -6.07,3.49 -9.16,12.12 -7.25,-6.38 -6.42,-15.1 -5.09,-23.48 -0.95,1.77 -2.33,4.34 -3.8,7.06 -2.02,-3.42 -3.66,-6.19 -5.74,-9.71 -0.69,3.66 1.2,5.84 2.31,8.26 2.07,4.51 3.98,9.09 6.49,14.85 -11.95,-4.74 -17.26,-13.07 -18.83,-23.53 -2.98,-19.79 1.94,-37.76 14.41,-53.51 5.11,-6.45 11.85,-9.33 20.09,-8.5 6.34,0.64 10.46,4.71 11.07,11.01 0.16,1.68 0.18,3.39 0.13,5.08 -0.08,2.92 -0.27,5.85 -0.46,9.8 -6.33,-5.63 -6.11,-13.09 -9.87,-18.6 0.82,6.34 1.62,12.72 5.47,18.04 3.79,5.29 5.13,11.04 4.93,17.38 z m 205.56,150.95 c 0,-2.37 0,-4.22 0,-6.06 -5.22,14.79 -11.58,20.2 -24.23,19.53 2.21,-2.02 4.4,-4.01 6.59,-6.01 -0.27,-0.47 -0.55,-0.93 -0.82,-1.4 -3.45,3.31 -7.15,6.13 -12.01,5.23 -3.28,-0.6 -6.64,-1.24 -9.67,-2.55 -4.01,-1.74 -7.73,-4.15 -11.47,-6.94 6.21,-2.01 12.15,-4.09 18.77,-2.62 5.53,1.23 11.16,2.65 16.87,0.85 1.33,-0.42 2.56,-1.14 3.63,-2.55 -3.17,0.36 -6.36,1.1 -9.51,0.96 -3.26,-0.15 -6.48,-1.17 -10.25,-1.91 2.97,-4.97 7.28,-5.94 11.55,-6.51 10.56,-1.42 17.51,-7.7 22.79,-16.36 0.59,-0.97 0.76,-2.2 0.62,-3.78 -6.07,9.54 -13.32,17 -25.91,17.78 1.81,-5.52 3.36,-10.24 5.11,-15.58 7.52,-3.39 16.37,-5.84 21.05,-14.3 8.92,8.13 7.3,31.79 -3.11,42.22 z m -71.75,9.37 c -0.38,-0.08 -0.99,-0.35 -1.09,-0.22 -5.14,6.43 -11.74,6.89 -18.9,4.52 -4.6,-1.52 -9.07,-3.42 -13.87,-5.26 4.44,-2.9 8.56,-5.59 12.68,-8.28 -0.26,-0.45 -0.53,-0.91 -0.79,-1.36 -3.08,1.67 -6.04,3.64 -9.26,4.93 -3.5,1.41 -7.23,2.31 -10.91,3.2 -3.66,0.88 -7.4,1.48 -11.61,2.3 0.83,-6.01 4.84,-9.33 9.24,-12.9 -1.25,0.28 -2.65,0.3 -3.74,0.88 -4.17,2.22 -6.42,6.11 -7.9,10.35 -1.04,2.97 -2.73,5.14 -5.29,6.84 -8.49,5.64 -14.77,13.22 -19.23,22.31 -3.82,7.8 -9.19,14.06 -16.73,18.54 -3.7,2.2 -7.05,4.99 -11.3,8.03 2.47,-7.59 6.11,-13.35 11.46,-18 3.44,-2.99 6.11,-6.43 6.96,-11.03 1.44,-7.77 6.08,-12.78 13.28,-15.68 1.29,-0.52 2.43,-1.42 4.91,-2.9 -6.66,-0.04 -9.96,4.01 -14.3,5.76 -0.39,-0.7 -0.78,-1.4 -1.25,-2.24 -0.43,0.4 -1.07,0.7 -1.2,1.15 -1.18,4.04 -2.15,8.15 -3.43,12.17 -1.49,4.69 -3.44,9.11 -9.45,10.88 -0.12,-1.8 -0.38,-3.34 -0.3,-4.87 0.22,-4.01 0.5,-8.02 0.9,-12.02 0.86,-8.63 5.85,-13.77 14.53,-15.02 2.72,-0.39 5.45,-0.68 8.19,-0.91 8.15,-0.68 13.6,-5.26 17.42,-12.12 5.83,-10.47 14.17,-14.72 25.71,-12.03 5.47,1.28 10.8,3.58 15.87,6.08 6.81,3.34 13.23,7.47 19.97,10.96 3.59,1.86 6.1,4.5 7.74,8.04 2.89,6.24 -0.06,11.73 -6.8,12.57 -6.81,0.85 -12.71,-1.05 -17.33,-6.3 5.97,-0.29 11.6,-1.39 15.41,-6.71 0.24,-0.33 0.4,-0.73 0.53,-1.12 0.07,-0.15 -0.07,-0.36 -0.12,-0.54 z M 274.3,201.51 c -0.23,-0.43 -0.45,-0.86 -0.68,-1.3 1.37,-1.9 2.74,-3.81 4.11,-5.71 -3.29,0.39 -5.06,2.59 -6.43,5.01 -3.52,6.27 -8.34,10.95 -14.84,14.22 -3.77,1.89 -7,4.85 -10.45,7.35 1.05,-9.96 5.19,-18.47 12.58,-25.21 4.29,-3.91 9.43,-6.6 15.43,-6.46 8.83,0.21 17.65,0.73 27.53,1.17 -3.31,6.14 -5.73,11.67 -9.14,16.5 -1.65,2.33 -4.98,4.24 -7.84,4.79 -5.97,1.15 -12.11,0.89 -18.2,-0.95 2.62,-4.49 5.89,-7.02 11.08,-7.72 4.62,-0.62 9.53,-1.46 14.55,-5.73 -6.82,1.56 -12.26,2.8 -17.7,4.04 z m 37.75,-55.57 c 1.39,-1.46 2.52,-2.6 3.6,-3.78 3.69,-4.06 7.28,-8.22 11.08,-12.18 2.61,-2.73 5.43,-5.27 8.3,-7.74 4.39,-3.79 9.25,-7.15 10.69,-13.35 -4.52,5.16 -9.11,10.18 -15.86,13.31 -0.15,-2.58 -0.27,-4.75 -0.39,-6.92 -2.17,9.14 -6.22,16.82 -15.09,22.75 0,-5.5 0,-10.03 0,-14.56 -0.49,-0.11 -0.98,-0.22 -1.46,-0.32 0.65,9.16 -0.3,17.66 -8.37,23.32 -5.61,3.93 -11.84,5.31 -18.93,4.77 1.2,-3.92 4.14,-6.01 6.95,-8.14 3.68,-2.79 6.17,-6.21 6.27,-11.22 -2.4,3.98 -4.64,8.07 -9.61,10.05 -0.49,-7.24 1.52,-13.28 6.55,-17.96 3.38,-3.14 7.21,-5.86 11.1,-8.36 4.62,-2.96 9.43,-5.66 14.31,-8.15 3.34,-1.7 6.89,-3.07 10.47,-4.21 4.94,-1.56 8.99,-4.14 11.44,-9.17 -2.93,1.92 -5.86,3.83 -9.55,6.24 1.15,-3.62 2,-6.14 2.71,-8.69 0.14,-0.52 -0.23,-1.18 -0.61,-2.89 -1.92,7.73 -6.09,12.18 -13.39,14.34 1.34,-3.39 2.5,-6.31 3.65,-9.23 -0.39,-0.22 -0.77,-0.44 -1.16,-0.66 -3.91,8.23 -8.72,15.48 -18.31,17.79 2.16,-6.07 4.3,-11.95 6.35,-17.86 3.16,-9.1 9.89,-13.38 19.13,-14.11 9.3,-0.74 15.84,3.72 20.15,11.6 2.77,5.04 4.35,10.47 4.49,16.35 0.2,8.44 -2.75,15.5 -9.25,20.64 -8.15,6.45 -12.23,14.83 -13.72,24.84 -0.46,3.12 -1.15,6.24 -2.06,9.27 -4.18,13.97 -13.55,20.26 -28.2,21.31 -5.57,0.4 -11.24,-0.62 -16.81,-0.99 4.42,-3.86 8.36,-7.54 12.56,-10.91 3.05,-2.45 6.61,-3.73 10.65,-2.68 3.17,0.83 6.33,1.66 9.86,1.68 -1.62,-1.01 -3.25,-2.02 -5.34,-3.31 3,-2.04 6.54,-3.3 7.79,-7.47 -8.98,5.57 -10.86,6.13 -20.32,5.98 1.4,-2 2.62,-3.74 3.84,-5.48 -0.33,-0.28 -0.66,-0.55 -0.99,-0.83 -1.52,1.81 -3.5,3.4 -4.48,5.47 -5.51,11.67 -15.78,15.05 -27.42,16.22 -1.01,0.1 -2.03,0.18 -3.26,-0.11 6.3,-4.5 14.44,-6.99 16.93,-17.08 -1.52,1.44 -2.25,1.86 -2.59,2.49 -2.55,4.72 -6.81,7.26 -11.39,9.66 -4.2,2.2 -8.06,5.06 -12.05,7.64 -0.11,-0.78 -0.48,-1.66 -0.21,-2.28 5.04,-11.74 13.23,-20.07 25.96,-23.08 7.2,-1.7 14.25,-3.51 20.97,-6.88 3.4,-1.71 7.72,-1.77 11.66,-2.15 3.29,-0.32 6.63,-0.09 9.22,-2.95 -5.26,-0.02 -10.24,-0.02 -15.86,-0.02 z m -51.85,37.43 c -0.02,0.01 -0.04,0.03 -0.06,0.04 l -0.31,-0.06 z m 97.56,19.49 c 4.18,-3.06 7.62,-6.23 11.63,-8.32 4,-2.08 8.58,-3.06 13.02,-5.1 -3.1,0 -6.19,0 -9.29,0 1.56,-4.77 5.97,-5.68 9.88,-6.19 8.72,-1.12 17.54,-1.5 26.28,-2.18 1.25,11.62 -6.64,20.48 -19.59,22.23 1.39,-1.9 2.67,-3.39 3.65,-5.06 0.91,-1.55 1.5,-3.28 1.86,-5.21 -4.21,5.34 -8.35,10.57 -15.55,11.69 -7.3,1.14 -14.49,1.13 -21.89,-1.86 z m 63.69,-61.89 c -0.37,-3.88 -0.06,-7.83 -0.06,-12.81 7.52,7.1 11.2,15.12 13.01,24.16 1.42,7.08 -0.77,12.87 -6.35,17.4 -0.31,0.25 -0.73,0.39 -1.12,0.51 -0.18,0.06 -0.41,-0.05 -1.18,-0.16 1.06,-5.23 2.11,-10.45 3.16,-15.66 -0.41,-0.12 -0.83,-0.23 -1.24,-0.35 -0.49,1.21 -1.09,2.39 -1.44,3.64 -0.8,2.84 -1.6,5.69 -2.19,8.58 -1.16,5.69 -4.6,8.8 -10.29,9.58 -2.24,0.31 -4.47,0.71 -8.01,1.28 2.21,-2.35 3.43,-3.73 4.74,-5.03 8.68,-8.62 12.11,-19.02 10.97,-31.14 z M 413,110.31 c 2.94,5.94 3.99,12.31 2.67,19.53 -4.82,-3.84 -6.62,-8.94 -8.62,-13.98 -1.47,-3.71 -3.23,-7.32 -5.08,-10.86 -0.58,-1.12 -1.86,-1.87 -2.82,-2.79 -0.16,0.14 -0.33,0.28 -0.49,0.42 1.65,3.3 3.5,6.52 4.88,9.94 1.42,3.51 2.08,7.34 3.6,10.8 1.43,3.26 3.46,6.28 5.39,9.31 5.28,8.28 6.51,16.84 1.99,25.85 -0.28,0.56 -0.69,1.05 -1.09,1.54 -0.11,0.13 -0.4,0.11 -0.65,0.18 -0.17,-3.53 -0.34,-7.05 -0.51,-10.57 -0.27,-0.02 -0.54,-0.04 -0.81,-0.05 -0.66,4.94 -0.82,10.01 -2.12,14.78 -1.46,5.33 -5.59,8.87 -10.48,11.34 -4.8,2.42 -9.94,2.51 -15.54,1.69 6.45,-4.23 11.45,-9.28 12.5,-18.36 -4.22,4.77 -4.4,11.51 -11.44,13.06 -0.14,-3.02 -0.27,-5.97 -0.4,-8.91 -0.39,-0.05 -0.79,-0.1 -1.18,-0.15 -0.26,1.67 -0.68,3.34 -0.74,5.02 -0.24,6.48 -2.06,11.82 -8.24,15.34 -2.59,1.47 -4.35,4.5 -6.3,6.98 -3.68,4.68 -7.93,8.06 -14.62,6.97 5.17,-2.42 7.31,-7.02 9.64,-11.72 1.65,-3.34 4.47,-6.09 6.78,-9.1 1.65,-2.15 3.33,-4.27 5.84,-7.5 -4.91,0.84 -5.65,4.4 -7.77,6.28 -2.18,1.94 -4.03,4.26 -6.26,6.67 -0.89,-1.63 -1.61,-2.96 -2.69,-4.95 -0.34,1.38 -0.66,1.95 -0.58,2.46 0.23,1.45 0.85,2.87 0.92,4.31 0.24,4.98 -3.91,9.93 -8.84,9.51 -5.56,-0.48 -11.03,-2.11 -16.53,-3.24 -0.04,-0.52 -0.08,-1.05 -0.12,-1.57 1.92,-0.88 3.78,-1.95 5.77,-2.6 6.93,-2.28 12.54,-6.47 16.13,-12.66 9.73,-16.74 25.5,-21.66 43.26,-23.02 1.26,-0.1 2.54,-0.07 3.79,-0.21 0.31,-0.03 0.58,-0.46 1.64,-1.36 -8.01,-2.12 -15.19,0 -22.72,1.38 2.79,-5.76 6.61,-9.7 11.92,-12.28 3.75,-1.82 7.3,-4.01 9.57,-9.28 -3.77,2.69 -6.62,4.71 -9.46,6.74 2.62,-12.7 -0.91,-23.26 -8.33,-32.95 0.53,1.76 1.07,3.51 1.83,6.02 -3.35,-2.1 -6.16,-3.88 -8.98,-5.65 -0.23,0.33 -0.46,0.66 -0.7,0.98 2.84,2.6 5.87,5.02 8.49,7.82 7.86,8.4 7.37,18.52 -1.1,26.78 -1.68,-4.03 -3.38,-8.09 -5.08,-12.16 -0.42,0.16 -0.84,0.32 -1.26,0.48 0.51,1.73 0.98,3.47 1.53,5.19 2.67,8.28 0.73,14.01 -6.58,18.45 -3.93,2.39 -8.09,4.41 -12.7,6.89 0.59,-7.54 4.77,-12.84 7.8,-19.08 -1.03,0.75 -2.25,1.32 -3.05,2.26 -3.9,4.6 -5.95,10.13 -7.86,15.78 -1.28,3.78 -2.8,7.55 -4.76,11.02 -6.34,11.23 -16.47,15.75 -29.47,16 6.24,-6.66 12.14,-12.97 18.04,-19.27 -0.17,-0.25 -0.34,-0.51 -0.51,-0.76 -1.52,0.85 -3.03,1.7 -5.26,2.95 0.87,-3.78 1.63,-7.07 2.19,-9.54 4.75,-3.93 9.02,-7.26 13.02,-10.89 1.04,-0.94 1.24,-2.8 1.39,-4.56 -3.48,4.42 -6.43,9.31 -13.19,9.74 0.55,-8.42 4.75,-14.34 10.95,-19.25 6.51,-5.15 13.84,-5.7 21.92,-3.79 -0.76,-3.8 -4.18,-2.51 -6.24,-4.11 1.07,-1.59 2.04,-3.03 3.8,-5.63 -4.1,2.42 -6.99,4.13 -11.14,6.59 2.88,-9.57 5.61,-17.34 12.27,-23.02 6.34,-5.4 13.43,-8.71 21.99,-7.86 10.53,1.05 16.5,7.92 20.8,16.63 z M 387.06,79.1 c 3.21,3.48 5.49,5.94 8.51,9.21 -3.6,0 -5.98,0 -8.51,0 0,-2.6 0,-5.16 0,-9.21 z M 344.9,62.9 c 1.19,-5.04 4.41,-7.58 9.55,-7.3 1.66,0.09 3.4,0.39 4.92,1.04 8.4,3.56 15.02,9.29 19.96,16.97 0.23,0.35 0.4,0.74 0.59,1.12 4.7,9.58 2.21,15.54 -8.18,19.53 -0.18,0.26 -0.36,0.52 -0.55,0.78 -0.13,-0.13 -0.26,-0.26 -0.39,-0.39 0.25,-0.19 0.51,-0.38 0.76,-0.56 0.87,-5.31 1.75,-10.62 2.62,-15.94 -0.25,-0.07 -0.49,-0.15 -0.74,-0.22 -0.81,1.84 -1.61,3.67 -2.57,5.86 -1.4,-1.56 -2.7,-3 -3.99,-4.44 5.12,9.22 2.2,16.64 -4.77,23.91 -1.59,-4.83 -3.18,-9.24 -4.46,-13.75 -0.91,-3.24 0.02,-6.17 2.11,-8.88 3.05,-3.95 4.5,-8.45 3.95,-14.74 -1.81,4.99 -3.21,8.86 -4.61,12.73 -0.34,-0.03 -0.68,-0.06 -1.02,-0.09 -1.08,-5.28 -2.16,-10.56 -3.24,-15.84 -0.49,0.09 -0.98,0.17 -1.48,0.26 0.59,3.25 1.42,6.49 1.7,9.77 0.3,3.52 0.07,7.09 0.07,11 C 346.75,78.9 343.02,70.93 344.9,62.9 Z M 311.15,29.5 c 8.07,2.11 15.4,5.75 21.95,10.94 3.28,2.6 5.6,5.8 5.97,10.07 0.34,3.99 1,8.07 0.53,11.98 -0.77,6.31 -4.17,10.99 -10.66,12.8 -0.81,0.23 -1.6,0.58 -2.43,0.73 -7.27,1.39 -11.76,6.39 -17.16,11.68 -1.66,-10.37 3.19,-18.48 11.7,-19.77 4.62,-0.7 9.09,-2.35 13.62,-3.57 -0.11,-0.49 -0.22,-0.98 -0.33,-1.47 -4.15,0.75 -8.31,1.51 -13.21,2.4 2.61,-7.09 9.63,-10.66 10.2,-18.07 -1.78,2.32 -3.56,4.63 -5.76,7.5 -0.85,-3.78 -1.5,-6.71 -2.16,-9.65 -0.35,0.04 -0.7,0.09 -1.05,0.13 -0.05,1.09 -0.41,2.28 -0.09,3.25 2.28,6.86 -0.79,11.87 -5.47,16.35 -0.61,0.58 -1.27,1.14 -1.99,1.57 -5.45,3.22 -7.12,8.13 -10.41,13.95 -1.97,-3.57 -2.31,-4.19 -4.17,-7.57 -0.48,4.12 0.9,6.65 1.87,9.19 5.94,15.68 3.93,24.15 -8.36,35.77 -2.89,2.74 -5.4,5.88 -8.06,8.81 -4.01,-7.06 -2.35,-17.71 3.79,-23.5 1.84,-1.74 3.9,-3.26 5.69,-5.05 3,-3 4.31,-6.19 3.57,-10.46 -2.03,4.37 -3.71,9.52 -8.9,11.62 0.75,-2.87 1.4,-5.59 2.02,-8.01 l -1.03,-0.31 c -6.62,11.82 -13.95,25.51 -9.66,40.56 2.62,9.18 -1.08,19.11 -10.02,24.62 1,-3.61 1.96,-7.1 2.93,-10.59 -0.44,-0.15 -0.88,-0.29 -1.32,-0.44 -1.13,2.76 -1.98,5.67 -3.46,8.23 -1.56,2.69 -3.71,5.04 -6.19,8.31 -0.93,-2.84 -1.62,-4.73 -2.17,-6.66 -2.24,-7.82 -1.07,-10.87 5.59,-15.69 2.85,-2.06 6.9,-4.41 8.13,-8.38 -4.34,3.29 -9.85,6.19 -13.68,10 -3.02,3.01 -4.42,7.89 -2.97,12.25 2.5,7.53 1.71,14.24 -2.73,21.04 -3.2,4.9 -5.05,10.67 -7.53,16.04 -0.84,1.82 -1.75,3.61 -3.26,5.3 -1.28,-6.03 -2.38,-12.19 -0.66,-17.9 1.65,-5.45 5.06,-10.37 7.91,-15.93 -2.94,0.42 -3.56,2.93 -4.89,4.55 -1.43,1.75 -2.65,3.67 -4.31,6.01 -1.5,-8.97 -0.75,-16.69 4.28,-24.03 3.05,-4.46 5.15,-9.66 7.1,-14.75 2.25,-5.86 5.62,-9.75 12.27,-10.22 2.13,-0.15 4.19,-1.2 6.29,-1.84 -0.1,-0.45 -0.21,-0.89 -0.31,-1.34 -1.93,0.15 -3.86,0.3 -6.14,0.48 0.84,-2.83 2.54,-8.89 2.54,-8.89 0,0 -1.11,0.03 -1.38,-0.43 -1.18,3.55 -1.88,8.08 -10.54,12.93 -2.62,1.47 -4.15,5.14 -5.63,8.08 -1.96,3.89 -2.93,8.33 -7.13,11.64 -1.22,-5.62 -0.32,-10.38 1.85,-14.91 5.34,-11.14 12.32,-20.62 24.5,-25.25 8.35,-3.17 13.94,-9.41 17.23,-17.64 3.66,-9.19 8.95,-17.08 16.31,-23.83 9.9,-9.08 11.15,-17.22 5.61,-29.65 -0.34,-0.76 -0.68,-1.53 -1.24,-2.79 1.2,-0.08 2.18,-0.41 3.01,-0.19 z m -6.49,5.34 c 4.9,7.63 3.73,15.99 -2.64,21.79 -0.58,-6.03 1.28,-12.39 -2.85,-17.56 0.05,5.25 0.46,10.51 0.05,15.7 -0.44,5.53 -4.17,9.43 -8.53,14 -0.54,-4.81 -1.23,-8.58 -1.31,-12.36 -0.09,-4.38 0.16,-8.79 0.64,-13.14 0.54,-4.88 0.89,-9.57 -3.35,-13.29 0.96,4.17 3.09,8.25 0.19,13.1 -4.16,-8.01 -8.2,-15.77 -12.54,-24.13 12.7,0.97 23.36,5.03 30.34,15.89 z m -32.89,34.71 -0.72,-0.64 c 2.16,-6.53 4.35,-13.31 6.45,-19.68 -0.45,-0.17 -0.9,-0.34 -1.35,-0.52 -1.14,2.79 -2.69,5.48 -3.34,8.38 -2.1,9.44 -6.4,13.16 -16.6,15.66 0.41,-3.16 0.88,-6.83 1.28,-9.91 6.58,-3.35 8.96,-7.98 8.65,-14.1 -2.1,1.8 -3.3,10.19 -8.68,10.37 -3.55,-5.4 -1.76,-13.44 4.43,-17.18 2.1,-1.27 4.69,-1.73 7.07,-2.51 1.5,-0.49 3.04,-0.86 4.38,-2.12 -3.62,0.21 -7.24,0.43 -10.86,0.64 2.18,-2.77 4.36,-5.54 6.54,-8.3 -0.08,-0.2 -0.15,-0.39 -0.23,-0.59 -2.47,1.68 -4.95,3.37 -7.8,5.31 -1.06,-2.12 -2.12,-4.23 -3.18,-6.35 -0.21,0.11 -0.42,0.22 -0.64,0.34 0.44,3.69 1.77,7.56 1.07,11.02 -0.77,3.78 -3.41,7.18 -5.42,11.1 -1.21,-1.57 -2.28,-2.97 -3.74,-4.87 -1.01,3.73 1.25,5.79 2.23,8.14 4.15,9.98 2.85,16.95 -5.17,24.97 -0.16,-6.45 4.45,-13.16 -2.86,-19.44 4.46,9.53 -0.3,17.24 -1.02,25.4 -0.52,0.02 -1.04,0.04 -1.55,0.06 -0.56,-4.05 -1.35,-8.09 -1.61,-12.17 -0.4,-6.11 -0.67,-12.25 -0.5,-18.36 0.08,-2.88 1.02,-5.85 2.12,-8.55 3.18,-7.76 6.64,-15.4 10.29,-23.76 -3.73,1.9 -3.75,1.9 -5.97,8.41 -1.07,3.14 -1.67,6.53 -5.03,9.05 -0.49,-2.63 -1.08,-4.79 -1.28,-6.99 -0.52,-5.67 0.01,-11.18 5.02,-14.87 4.91,-3.61 10.58,-3.37 15.66,-0.89 4.07,1.98 8.26,4.72 11.05,8.2 12.83,16.05 17.52,34.48 13.42,54.68 -1.94,9.54 -7.72,16.57 -17.42,20.59 0.31,-5.05 2.02,-8.96 4.99,-12.41 2.32,-2.69 4.18,-5.6 4.4,-10.16 -2.5,3.61 -4.51,6.51 -7.02,10.13 -1.24,-3.36 -2.57,-6.77 -3.38,-8.94 1.07,10.67 -0.45,17.69 -5.74,24.86 -0.78,-5.88 -4.79,-10.09 -10.18,-12.57 2.54,3.44 5.48,7.02 6.63,10.45 1.37,4.06 -2,7.14 -4.5,9.91 -0.49,-1.86 -2.14,-6.66 -2.14,-6.66 -0.72,3.49 -1.14,8.6 -2.4,11.89 -1.24,3.24 -3.47,6.1 -5.44,9.42 -6.05,-17.58 1.79,-37.33 14.11,-47.34 3.3,-2.68 7.67,-4.76 11.95,-5.69 4.11,-0.9 10.97,-2.99 13.08,-10.4 -3.68,2.56 -5.09,4.28 -9.05,6.99 z m -28.21,167.64 c 1.37,-3.91 3.44,-7.77 5.97,-11.05 5.44,-7.06 11.72,-9.87 22.92,-7.99 -4.57,1.36 -8.67,4.29 -10.93,7.95 -2.22,3.59 -3.29,9.42 -3.29,14.51 -1.78,-1.68 -3.62,-3.45 -5.19,-3.76 0.56,0.64 4.94,6.41 4.09,12.81 -0.63,4.67 -2.58,8.84 -5.5,12.49 -1.42,-3.89 -2.92,-7.65 -4.33,-11.47 l -1.52,0.27 c 4.95,10.84 2.43,21.35 -4.45,29.9 -2.09,-14.72 -2.71,-29.62 2.23,-43.66 z m 153.96,101.9 c -4.62,11.61 -12.86,22.19 -26.43,32.91 -13.57,10.71 -40.51,17.6 -54.25,16.46 -3.37,-0.28 -6.75,-0.96 -10.1,-1.99 2.3,-2.49 6.9,-6.35 11.46,-9.22 12.21,-2.59 22.34,1.76 22.34,1.76 -2.39,-2.5 -10.28,-5.3 -15.7,-5.07 0.08,-0.02 0.16,-0.05 0.24,-0.08 11.61,-3.44 16.3,-0.1 23.22,-0.54 6.92,-0.44 10.74,-3.2 10.74,-3.2 -14.32,2.32 -17.91,-1.8 -27.67,-1.74 3.37,-2.69 4.97,-7.77 4.97,-7.77 -0.82,1.15 -5.35,6.8 -9.57,8.19 -8.94,1.88 -18.59,10.63 -25.59,15.62 -6.03,-2.57 -11.86,-6.22 -17.23,-10.67 1.99,0.2 4.17,0.13 6.53,-0.31 4.85,-0.92 9.04,-3.12 13.29,-5.93 2.35,-1.56 4.99,-4.06 7.49,-5.38 1.23,-0.65 2.53,-1.2 3.88,-1.57 1.39,-0.38 2.72,-0.38 4.13,-0.46 -1.47,-0.22 -3.25,-0.65 -4.75,-0.65 -1.57,0 -3.03,0.61 -4.6,0.61 1.39,-1.41 2.57,-3.03 3.48,-4.79 -4.6,4.14 -8.45,9.25 -13.85,12.26 -3.88,2.16 -8.35,3.08 -12.79,3.26 -2.59,0.1 -5.31,-0.08 -7.58,-1.31 -0.37,-0.36 -0.74,-0.72 -1.1,-1.09 -4.04,-4.06 -8.12,-7.67 -11.69,-10.62 0,0 1.74,-2.16 3.5,-4.12 10.51,-3.08 31.69,-2.57 46.49,-1.07 12.08,1.23 28.54,8.32 37.87,10.31 14.54,3.1 16.93,-1.64 16.93,-1.64 -3.5,0.99 -7.65,0.53 -12.32,-0.68 10.23,1.09 28.83,-16.91 31.24,-20.69 0,0 -7.19,5.45 -15.55,10.52 -0.15,-2.14 1.04,-6.22 2.89,-11.25 -0.8,1.44 -5.34,9.47 -6.15,13.17 -6.69,3.81 -13.63,6.94 -17.94,6.59 0,0 0,0 0,0 -4.1,-1.37 -8.52,-3.07 -13.21,-4.72 11.54,-0.53 19.72,-10.63 19.72,-10.63 -6.77,7.08 -28.68,7.32 -34.75,6.12 0,0 0,0 0,0 -3.51,-0.8 -7.12,-1.41 -10.8,-1.71 -19.28,-1.55 -26.81,-1.93 -36.1,-0.34 5.67,-2.6 13.76,-4.74 22.46,-4.98 16.17,-0.46 27.79,-7.97 27.79,-7.97 -7.95,4.18 -25.59,4.45 -25.59,4.45 5.66,-2.83 7.14,-10.91 7.14,-10.91 0,0 -4.26,11.81 -20.61,12.23 -12.5,0.33 -23.48,10.84 -26.76,14.3 -4.25,-3.33 -7.11,-5.27 -7.11,-5.27 0.64,-2.76 1.38,-5.23 2.24,-7.55 4.98,-5.37 14.88,-11.13 21.52,-13.68 7.47,-2.87 13.5,-9.58 13.5,-9.58 0,0 -5.33,4.14 -14.78,6.61 -0.29,0.07 -0.58,0.16 -0.87,0.25 3.12,-4.29 4.52,-10.59 4.52,-10.59 -0.93,3.36 -5.72,9.72 -8.25,12.02 -4.6,2.09 -9.18,5.22 -12.15,7.43 2.88,-5.15 6.75,-10.33 12.15,-17.4 0.36,-0.47 0.72,-0.91 1.08,-1.33 0.19,-0.23 0.39,-0.44 0.59,-0.66 0.17,-0.18 0.33,-0.36 0.5,-0.53 0.22,-0.23 0.44,-0.46 0.66,-0.67 0.14,-0.14 0.28,-0.25 0.42,-0.38 0.36,-0.33 0.73,-0.63 1.09,-0.92 0.21,-0.17 0.43,-0.33 0.64,-0.47 0.15,-0.11 0.31,-0.22 0.46,-0.31 4.92,-3.19 9.42,-2.08 12.92,-0.21 1.69,0.86 3.43,2.03 5.23,3.53 4.02,2.87 24.85,17.05 52.29,18.17 19.96,0.82 37.43,-4.79 37.43,-4.79 10.73,-3.55 15.94,-8.5 15.94,-8.5 0,0 -0.53,7.57 -5.14,19.17 z M 362.51,325 c 0.29,0.2 0.38,0.69 0.59,1.1 -7.29,1.4 -14.12,1.63 -21.51,0 -6.65,-10.79 -14.48,-19.09 -28.12,-21.59 2.83,-1.49 4.84,-2.54 6.86,-3.6 -0.11,-0.35 -0.21,-0.71 -0.32,-1.06 -5.18,1.56 -10.28,3.75 -15.57,4.5 -5.55,0.78 -11.3,0.18 -17.35,-0.96 1,-0.76 1.88,-1.83 3.01,-2.22 5.95,-2.1 11.85,-4.52 17.98,-5.87 5.72,-1.25 11.34,0.45 16.39,3.47 2.71,1.63 5.28,3.49 7.89,5.3 10.05,6.95 20.11,13.93 30.15,20.93 z m -2.13,-7.29 c 9.9,1.26 18.41,-1.67 27.09,-3.83 3.54,-0.88 7.31,-0.87 11.87,-1.35 -12.29,11.47 -30.02,14.1 -38.96,5.18 z m -22.26,7.39 c -9.06,1.48 -27.69,-6.6 -40.59,-16.64 17.32,-4.83 30.99,1.8 40.59,16.64 z m 51.97,-16.6 c 6.96,-11.47 17.27,-14.7 30.01,-17.94 -4.6,11.53 -15.74,17.94 -30.01,17.94 z m 27.27,-22.82 c 0.92,-1.95 1.66,-3.53 2.4,-5.1 -0.17,-0.19 -0.34,-0.38 -0.51,-0.57 -0.46,0.4 -1.04,0.72 -1.36,1.21 -3.13,4.74 -7.29,8.04 -12.67,10.01 -6.88,2.52 -12.7,6.78 -17.22,12.51 -10.29,13.04 -33.05,11.11 -43.31,2.9 -0.38,-0.3 -0.53,-0.89 -0.76,-1.39 8.84,0.37 16.88,-1.53 24.1,-7.17 2.04,-1.59 5.59,-1.5 8.48,-1.68 5.47,-0.35 5.49,-0.2 9.84,-3.23 -4.55,0.27 -9.09,0.53 -14.86,0.87 4.24,-6.65 8.98,-10.04 15.8,-10.49 4.41,-0.29 8.94,-0.28 13.18,-1.35 9.61,-2.42 15.94,-8.73 20.06,-18.54 -5.14,4.98 -9.23,9.87 -14.21,13.53 -5.23,3.84 -11.71,4.44 -18.71,3.74 1.33,-2.26 2.57,-4.36 3.79,-6.43 -2.24,1.54 -4.47,3.08 -6.73,4.57 -2.93,1.94 -5.91,3.8 -9.62,6.18 0.43,-3.81 0.75,-6.64 1.08,-9.47 -0.39,-0.16 -0.79,-0.31 -1.18,-0.47 -2.23,8.28 -3.32,17.28 -11.65,21.91 -2.91,1.62 -6.11,3.43 -9.29,3.69 -4.75,0.39 -9.71,-0.03 -14.39,-1.03 -3.52,-0.75 -6.74,-2.96 -9.95,-5.16 6.11,-0.4 11.68,-1.43 16.89,-4.45 1.65,-0.96 4.1,-0.58 6.2,-0.69 1.79,-0.1 3.58,-0.02 5.58,-0.85 -1.82,-0.71 -3.64,-1.42 -5.83,-2.27 2.15,-5.27 8.3,-4.3 12.35,-8.11 -3.03,0.33 -5.24,0.56 -7.91,0.85 1.01,-2.15 1.92,-4.09 3.15,-6.73 -3.01,0.47 -3.18,2.6 -3.99,3.99 -4.81,8.22 -11.88,13.02 -21.34,14.12 -2.43,0.28 -4.92,0.04 -8.53,0.04 2.55,-4.06 5.29,-5.72 8.21,-7.14 3.53,-1.71 6.35,-4.04 8.08,-9.51 -2.78,2.74 -4.55,4.48 -6.88,6.78 -0.38,-1.85 -0.61,-3.01 -1,-4.92 -4.58,8.13 -10.16,13.55 -20.25,12.97 3.43,-6.57 5.94,-12.93 11,-17.88 1.39,-1.36 2.14,-3.39 3.18,-5.11 l -0.14,-0.14 c -2.43,2.14 -4.86,4.29 -7.67,6.78 -0.21,-2.96 -0.37,-5.26 -0.53,-7.56 -0.44,-0.02 -0.87,-0.04 -1.31,-0.07 -0.23,1.73 -0.47,3.46 -0.68,5.2 -0.57,4.89 -1.7,9.57 -4.83,13.55 -2.42,3.07 -5.29,5.53 -9.2,6.34 -24.52,5.05 -39.9,21.65 -52.59,41.65 -1.21,1.9 -2.39,3.82 -4.16,6.65 -1.38,-10.26 -0.33,-18.65 5.86,-26.01 7.75,-9.22 16.74,-16.72 28.04,-21.18 6.75,-2.67 11.69,-7.34 15.75,-13.26 1.48,-2.15 3.75,-3.87 5.94,-5.4 4.55,-3.17 5.2,-3.84 6.3,-8.57 -2.54,2.39 -5.12,4.82 -7.69,7.25 -0.35,-0.25 -0.71,-0.51 -1.06,-0.76 0.2,-1.74 0.4,-3.48 0.59,-5.23 -5.03,8.53 -7.97,18.48 -18.85,22.16 -0.15,-2.23 -0.28,-4.12 -0.41,-6 -1.09,10.29 -10.68,10.36 -16.65,14.81 -0.92,-10.43 3.16,-17.66 12.05,-21.73 2.88,-1.32 5.87,-2.43 8.65,-3.93 2.1,-1.14 3.95,-2.74 5.42,-4.8 -5.04,2.18 -10.1,4.29 -15.1,6.55 -8.17,3.7 -13.25,9.94 -13.71,19 -0.39,7.59 -4.92,12.09 -10.08,16.63 -0.74,-1.09 -1.25,-1.85 -1.75,-2.58 -1.98,4.47 -3.89,8.77 -5.8,13.06 -0.42,-0.19 -0.84,-0.37 -1.26,-0.56 -1.13,-16.72 5.08,-30.62 17.44,-41.74 13.12,-11.81 28.67,-18.59 46.33,-19.84 8.94,-0.63 17.59,1.71 26.11,4.27 8.9,2.67 17.8,5.29 26.68,8.02 5.2,1.6 10.26,1.34 15.59,0.2 4.66,-1 9.59,-1.05 14.4,-1.03 9.68,0.06 15.62,-3.59 18.96,-12.7 -6.33,8.56 -14.14,12.9 -25.75,8.98 5.27,-4.83 10.34,-9.5 11.44,-16.9 -0.8,0.95 -1.81,1.8 -2.37,2.88 -2.93,5.65 -7.52,9.61 -12.79,12.9 -7.49,4.68 -12.99,4.93 -21.57,0.9 2.75,-0.88 5.34,-1.67 7.9,-2.55 0.34,-0.11 0.54,-0.6 1.78,-2.05 -11.83,3.04 -22.25,1.45 -32.84,-2.82 4.23,-1.93 7.9,-4.18 11.89,-5.27 3.76,-1.03 7.87,-1.22 11.8,-1.09 8.18,0.27 14.18,-1.47 19.1,-6.21 -0.34,-0.17 -0.81,-0.58 -1,-0.47 -6.88,3.88 -14.13,5.24 -21.97,3.81 -4.32,-0.79 -8.29,0.81 -12.18,2.65 -7.06,3.34 -14.34,4.59 -22.17,1.82 5.93,-5.1 9.47,-12.52 18,-13.94 -0.24,-0.47 -0.48,-0.94 -0.72,-1.41 -2.71,0.75 -5.42,1.51 -8.98,2.49 0.57,-2.44 1.08,-4.6 1.59,-6.76 -0.4,-0.14 -0.8,-0.27 -1.2,-0.41 -1.51,3.91 -2.61,8.05 -4.63,11.67 -2.22,3.99 -6.03,6.24 -11.29,6.7 0.65,-2.26 1.2,-4.15 1.74,-6.05 -0.24,-0.15 -0.49,-0.3 -0.73,-0.46 -0.76,1 -1.33,2.26 -2.31,2.95 -2.18,1.53 -4.41,3.48 -6.89,4 -6.97,1.47 -14.08,2.31 -21.73,3.49 4.96,-9.05 11.41,-15.72 22.08,-17.36 3.11,-0.48 6.27,-1.04 9.2,-2.13 1.97,-0.73 3.57,-2.43 4.98,-4.36 -7.86,4.86 -16.91,4.22 -25.3,6.24 4.07,-5.47 9.19,-9.68 15.65,-11.87 10.9,-3.7 20.77,-0.8 29.93,5.44 1.92,1.3 3.7,2.8 5.56,4.19 7.68,5.75 16.31,7.2 25.17,4.03 13.12,-4.7 24.88,-2.01 36.09,5.21 8.43,5.43 16.02,11.74 20.19,21.26 0.42,0.96 0.85,1.94 1.12,2.96 2.52,9.63 1.77,14.75 -10.65,18.38 z m 17.13,-18.04 c -1.96,-4.4 -3.49,-7.85 -5.02,-11.27 3.56,-2.34 6.86,-4.51 11.14,-7.32 -1.43,6.57 -3.51,12.03 -6.12,18.59 z m 10.45,-40.31 c -0.75,8.76 -4.89,16.12 -12.34,21.2 -4.68,3.18 -6.92,2.91 -11.26,-0.75 -3.05,-2.57 -6.13,-5.11 -9.28,-7.73 5.03,-1.6 9.86,-3.2 14.72,-4.67 4.95,-1.5 10.4,-1.75 15.39,-6.72 -4.67,1.26 -8.11,2.18 -12.9,3.47 1.89,-3.8 3.14,-6.31 4.85,-9.74 -2.96,1.06 -3.73,2.97 -4.58,4.66 -3.38,6.68 -9.03,9.27 -16.17,8.75 -3.75,-0.27 -7.52,-0.92 -11.18,-1.81 -5.31,-1.29 -10.53,-2.95 -15.76,-4.44 0.93,-1.14 2.02,-2.45 3.81,-4.63 -5.2,2.23 -9.32,3.99 -13.67,5.85 -0.25,-4.02 -0.06,-7.36 -0.78,-10.49 -0.69,-3.01 -2.33,-5.81 -3.63,-8.87 4.36,-0.74 7.71,1.64 10.92,3.89 7.94,5.56 16.56,9 26.21,10.35 7.16,1.01 13.65,-0.19 18.94,-4.85 5.03,-4.43 9.31,-9.71 13.89,-14.64 0.92,-1 1.71,-2.12 2.98,-3.72 -0.02,8.87 0.52,16.93 -0.16,24.89 z"
   id="path831"
   style="fill:url(#SVGID_1_)" />

		
			<linearGradient
   id="SVGID_00000008836601077392571480000003969509466864428458_"
   gradientUnits="userSpaceOnUse"
   x1="392.23569"
   y1="274.49869"
   x2="392.23569"
   y2="272.57269">
			<stop
   offset="0"
   style="stop-color:#050606"
   id="stop833" />

			<stop
   offset="1"
   style="stop-color:#6C6D6F"
   id="stop835" />

		</linearGradient>

		<path
   style="fill:url(#SVGID_00000008836601077392571480000003969509466864428458_)"
   d="m 392.53,272.57 c -0.38,0.64 -0.76,1.28 -1.14,1.93 0.56,-0.38 1.12,-0.77 1.68,-1.15 -0.18,-0.26 -0.36,-0.52 -0.54,-0.78 z"
   id="path838" />

	</g>

	<g
   id="g880">
		<path
   class="st2"
   d="m 397.43,266.27 v 0 c 16.58,-1 14.66,-9.59 16.64,-14.39 v 0 0 c -7.72,3.56 -16.71,-0.82 -16.64,14.39 z"
   id="path842" />

		<path
   class="st2"
   d="m 128.87,166.1 v 0 c -8.28,-14.4 -15.11,-8.85 -20.29,-8.49 v 0 0 c 6.63,5.32 6.71,15.32 20.29,8.49 z"
   id="path844" />

		<path
   class="st2"
   d="m 125.46,116.46 v 0 c 4.03,-16.11 -4.73,-16.86 -8.72,-20.2 v 0 0 c 1.08,8.43 -5.8,15.69 8.72,20.2 z"
   id="path846" />

		<path
   class="st2"
   d="m 214.04,207.55 v 0 c 1.07,-13.66 -6.16,-13.07 -9.86,-15.24 v 0 0 c 2.03,6.71 -2.58,13.56 9.86,15.24 z"
   id="path848" />

		<path
   class="st2"
   d="m 104.74,186.43 v 0 c 1.24,-11.58 -4.92,-11.25 -8.01,-13.17 v 0 0 c 1.57,5.75 -2.51,11.45 8.01,13.17 z"
   id="path850" />

		<path
   class="st2"
   d="m 144.92,239.45 v 0 c 6.92,-9.36 1.44,-12.19 -0.25,-15.42 v 0 0 c -1.56,5.75 -7.96,8.62 0.25,15.42 z"
   id="path852" />

		<path
   class="st2"
   d="m 392.31,149.05 v 0 c 10.17,7.95 13.47,1.97 17.1,0.19 v 0 0 c -6.33,-1.9 -9.31,-9.08 -17.1,-0.19 z"
   id="path854" />

		<path
   class="st2"
   d="m 365.89,141.1 v 0 c 8.53,-4.46 5.48,-8.54 5.39,-11.55 v 0 0 c -3.23,3.72 -9.03,3.53 -5.39,11.55 z"
   id="path856" />

		<path
   class="st2"
   d="m 344.54,112.04 v 0 c 7.92,-10 2.02,-13.3 0.28,-16.89 v 0 0 c -1.91,6.23 -9.02,9.14 -0.28,16.89 z"
   id="path858" />

		<path
   class="st2"
   d="m 313.28,125.62 v 0 c 11.31,-5.91 7.26,-11.32 7.15,-15.31 v 0 0 c -4.29,4.92 -11.97,4.67 -7.15,15.31 z"
   id="path860" />

		<path
   class="st2"
   d="m 298.36,133.44 v 0 c 8.2,-4.28 5.27,-8.21 5.18,-11.1 v 0 0 c -3.11,3.56 -8.68,3.38 -5.18,11.1 z"
   id="path862" />

		<path
   class="st2"
   d="m 335.01,93.12 v 0 c 8,-4.18 5.14,-8.01 5.05,-10.83 v 0 0 c -3.03,3.48 -8.46,3.3 -5.05,10.83 z"
   id="path864" />

		<path
   class="st2"
   d="m 323.66,47.2 v 0 c 1.24,-8.94 -3.54,-8.83 -5.89,-10.4 v 0 0 c 1.08,4.49 -2.21,8.81 5.89,10.4 z"
   id="path866" />

		<path
   class="st2"
   d="m 330.02,50.2 v 0 c 5.15,-2.48 3.42,-4.97 3.42,-6.75 v 0 0 c -1.99,2.14 -5.43,1.92 -3.42,6.75 z"
   id="path868" />

		<path
   class="st2"
   d="m 324.27,271.29 v 0 c 10.67,-0.64 9.43,-6.17 10.71,-9.26 v 0 0 c -4.97,2.29 -10.75,-0.53 -10.71,9.26 z"
   id="path870" />

		<path
   class="st2"
   d="m 332.55,213.26 v 0 c 11.41,-0.69 10.09,-6.6 11.46,-9.91 v 0 0 c -5.31,2.45 -11.51,-0.56 -11.46,9.91 z"
   id="path872" />

		<path
   class="st2"
   d="m 375.17,344.55 v 0 c 11.21,-3.16 8.62,-8.76 9.26,-12.34 v 0 0 c -4.76,3.6 -11.57,1.93 -9.26,12.34 z"
   id="path874" />

		<path
   class="st2"
   d="m 355.99,346.75 v 0 c 11.21,-3.16 8.62,-8.76 9.26,-12.34 v 0 0 c -4.76,3.59 -11.58,1.93 -9.26,12.34 z"
   id="path876" />

		<path
   class="st2"
   d="m 324.74,336.23 v 0 c 6.79,10.82 11.87,6.36 15.84,5.93 v 0 0 c -5.24,-3.9 -5.6,-11.58 -15.84,-5.93 z"
   id="path878" />

	</g>

</g>
      <g
         id="g7874"
         transform="translate(-1.0583333,2.2461009)">
        <text
           xml:space="preserve"
           style="font-style:normal;font-weight:normal;font-size:21.4835px;line-height:1.25;font-family:sans-serif;fill:#000000;fill-opacity:1;stroke:none;stroke-width:0.537088"
           x="58.808952"
           y="145.10075"
           id="text1208"><tspan
             id="tspan1206"
             style="font-style:normal;font-variant:normal;font-weight:bold;font-stretch:normal;font-size:21.4835px;font-family:'Cormorant Garamond';-inkscape-font-specification:'Cormorant Garamond, Normal';font-variant-ligatures:normal;font-variant-caps:normal;font-variant-numeric:normal;font-variant-east-asian:normal;stroke-width:0.537088"
             x="58.808952"
             y="145.10075">Gray Matter</tspan></text>
        <text
           xml:space="preserve"
           style="font-style:normal;font-weight:normal;font-size:10.5833px;line-height:1.25;font-family:sans-serif;fill:#000000;fill-opacity:1;stroke:none;stroke-width:0.264583"
           x="59.533562"
           y="158.08606"
           id="text4014"><tspan
             id="tspan4012"
             style="font-style:normal;font-variant:normal;font-weight:normal;font-stretch:normal;font-size:10.5833px;font-family:'Cormorant Garamond';-inkscape-font-specification:'Cormorant Garamond, Normal';font-variant-ligatures:normal;font-variant-caps:normal;font-variant-numeric:normal;font-variant-east-asian:normal;stroke-width:0.264583"
             x="59.533562"
             y="158.08606">Forestry Consulting</tspan></text>
      </g>
    </g>
  </g>
  <style
     type="text/css"
     id="style824">
	.st0{fill:url(#SVGID_1_);}
	.st1{fill:url(#SVGID_00000057110179226229287940000005547501756228883636_);}
	.st2{fill:#019347;}
	.st3{fill:#020202;}
	.st4{fill:#FFFFFF;}
	.st5{fill:url(#SVGID_00000134951127962485672870000008846612477916469691_);}
	.st6{fill:url(#SVGID_00000147211580613855275250000017481375987885786777_);}
</style>
</svg>
