<?xml version="1.0" encoding="utf-8"?>
<!-- Generator: Adobe Illustrator 27.0.0, SVG Export Plug-In . SVG Version: 6.00 Build 0)  -->
<svg version="1.1" id="Layer_1" xmlns="http://www.w3.org/2000/svg" xmlns:xlink="http://www.w3.org/1999/xlink" x="0px" y="0px"
	 viewBox="0 0 461.22 500" style="enable-background:new 0 0 461.22 500;" xml:space="preserve">
<style type="text/css">
	.st0{fill:url(#SVGID_1_);}
	.st1{fill:url(#SVGID_00000057110179226229287940000005547501756228883636_);}
	.st2{fill:#019347;}
	.st3{fill:#020202;}
	.st4{fill:#FFFFFF;}
	.st5{fill:url(#SVGID_00000134951127962485672870000008846612477916469691_);}
	.st6{fill:url(#SVGID_00000147211580613855275250000017481375987885786777_);}
</style>
<g>
	<g>
		<linearGradient id="SVGID_1_" gradientUnits="userSpaceOnUse" x1="230.6091" y1="496.5499" x2="230.6091" y2="3.4501">
			<stop  offset="0" style="stop-color:#050606"/>
			<stop  offset="1" style="stop-color:#6C6D6F"/>
		</linearGradient>
		<path class="st0" d="M453.73,182.41c-5.15-30.2-16.87-57.51-34.77-82.2c-19.14-26.4-43-47.47-71.13-64.12
			c-31.18-18.45-64.75-28.97-100.6-31.91c-35.54-2.92-70.12,2.97-103.16,16.02C99.71,37.71,62.15,64.67,33.6,103.45
			c-16.16,21.95-26.33,46.23-28.5,73.52c-1.17,14.66,1.62,28.76,9.14,41.52c10.03,17.01,25.89,25.65,44.68,29.39
			c11.5,2.29,36.15,0.51,37.15,0.69c-3.74,8.91-5.55,17.71-4.44,26.99c1.92,16.03,10.02,28.6,22.25,38.55
			c16.74,13.62,36.4,16.69,56.92,13.27c18.3-3.06,31,6.26,38.51,18.38c6.8,10.96,9.34,23.16,9.82,35.68
			c0.58,15.44,0.61,30.93,0.01,46.37c-0.35,9.02-1.76,18.13-3.82,26.94c-5.52,23.63-19.2,34.21-41.78,36.95
			c-10.28,1.25-20.63,2.02-30.97,2.51c-12.05,0.57-24.12,0.57-36.18,0.88c-1.49,0.04-2.96,0.49-4.44,0.75
			c0.05,0.23,0.1,0.47,0.14,0.7c84.12,0,168.25,0,252.37,0c-1.95-1.26-3.95-1.48-5.96-1.54c-20.52-0.54-41.05-1.01-61.37-4.2
			c-15.63-2.45-26.75-10.86-32.58-25.85c-4.03-10.35-6.1-21.07-6.64-32.14c-0.99-20.11-1.43-40.23,0.71-60.29
			c0.55-5.15,1.7-10.39,5.18-14.83c4.87,1.33,8.14,4.61,11.42,7.86c3.91,3.87,7.71,7.86,11.78,11.56
			c10.71,9.73,23.43,14.8,37.78,16.11c13.75,1.26,27-0.72,39.77-5.8c31.69-12.61,50.79-35.36,55.82-70.22
			c0.9-0.83,1.8-1.72,2.77-2.53c16.85-14.15,27.7-32.33,34.93-52.81C457.24,235.94,458.33,209.44,453.73,182.41z M192.26,19.42
			c-3.94,7.65-7.83,15.21-11.88,23.09c-3.53-4.43-1.94-8.36,0.95-12.63l-1.18-0.46c-1.22,1.53-2.29,2.97-3.52,4.52
			c-0.49-0.94-0.57-1.09-1.62-3.07c-0.82,1.48-1.53,3.09-1.11,3.86c4.51,8.23,4.7,14.99,3.32,23.93c-0.38,2.45-0.45,6.23-0.45,10
			c-11.77-8.27-8.73-20.5-8.85-29.42c-3.43,5.59-1.93,11.36-2.21,17.96c-5.69-3.83-7.17-8.91-5.63-15.23
			C162.85,30.6,177.36,16.44,192.26,19.42z M83.27,79.64c0.61-6.52,3.32-12.24,7.5-17.18c4.71-5.56,10.34-10.11,17.27-12.53
			c8.61-3,12.39-0.41,13.11,8.58c0.75,9.36-2.15,17.88-9.85,24.63c-0.54-3.31-0.69-6.63-0.96-9.76c-0.25-3.02-0.54-7.24-0.91-9.86
			c-0.77,1.73-1.55,3.88-1.13,15.23c-5.14-3.71-6.1-9.04-8.58-13.03c-0.29,4.59,1.99,9.73,4.67,12.78c3.08,3.5,3.85,8.4,1.8,13.45
			c-1.62,4.01-2.27,8.42-3.43,12.99c-9.58-7.46-8.8-16.69-5.24-26.84c-1.13,1.78-2.25,3.56-3.67,5.8c-0.63-2.66-1.14-4.83-1.65-6.99
			c-0.37,0.05-0.73,0.1-1.1,0.14c0.54,5.58,1.08,11.17,1.66,17.16C84.91,90.5,82.59,86.86,83.27,79.64z M144.27,103.67
			c-6.76-3.1-8.79-9.71-12.85-15.07c1.14,3.21,2.28,6.42,3.65,10.27c-4.72-2.62-8.77-6.53-15.76-5.82c2.01,1.19,2.91,1.84,3.9,2.28
			c1.91,0.86,3.99,1.4,5.79,2.44c10.2,5.92,20.25,12.12,30.53,17.89c7.9,4.44,15.03,9.67,19.14,17.91
			c5.5,11.02,14.45,17.17,25.98,20.53c9.59,2.79,15.56,10.02,16.87,19.45c-6.93-4.7-13.71-9.3-20.96-14.22
			c0.48,1.01,0.77,1.81,1.22,2.52c0.56,0.87,1.25,1.65,2.27,2.96c-9.28,0.28-13.61-5.99-18.3-11.76c2.76,7.66,7.57,12.78,15.79,14.4
			c15.29,3.01,21.38,9.35,24.37,24.9c0.31,1.6,0.55,3.21,0.06,5.11c-0.93-1.33-1.95-2.61-2.79-4c-4.95-8.17-12.17-13.34-21.19-16.15
			c-1.61-0.5-3.23-0.97-4.84-1.47c-18.43-5.74-26.07-16.81-24.51-36.12c-2.82,1.92-1.84,5.13-3.41,7.4
			c-6.9-5.48-6.96-12.59-4.28-20.43c-0.53,0.01-1.06,0.01-1.59,0.02c-1.06,3.94-2.11,7.89-3.23,12.05
			c-7.99-3.04-10.98-9.98-13.68-17.85c-0.48,4.5-0.48,4.5,3.14,13.57c-11.71-2.64-12.97-12.59-15.38-21.67
			c-0.41,0.13-0.82,0.26-1.23,0.39c0.34,2.41,0.69,4.82,1.05,7.37c-8.65-2.45-11.35-9.57-14.18-16.66
			c-0.78,6.03,1.75,10.76,5.9,14.44c4.89,4.32,9.87,8.38,13.8,13.76c1.83,2.5,5.36,4.19,8.45,5.26
			c11.76,4.06,18.97,12.16,22.68,24.78c-6.84-1.16-13.42-1.87-19.76-3.49c-4.03-1.03-5.36-5.13-6.39-8.85
			c-0.44-1.57-0.34-3.29-0.53-5.43c-1.61,4.94-1.59,5.69,0.3,11.84c-5.32-0.53-9.44-3.09-11.51-8.04
			c-3.41-8.14-8.3-15.12-14.95-20.89c-0.63-0.55-1.07-1.31-1.67-1.9c-13.3-12.92-8.43-29.55-0.33-39.42
			c3.68-4.49,8.47-6.98,14.26-7.08c13.64-0.23,22.02,5.16,25.12,18.14c1.1,4.61,2.81,9.07,4.25,13.6
			c-8.67-2.45-12.99-3.79-14.58-18.03C142.5,96.57,144.66,100.05,144.27,103.67z M78.12,72.4c-0.43,4.55-0.75,7.83-1.12,11.77
			c-3.55-0.25-6.95-0.48-11.07-0.77C69.39,78.81,73.07,75.42,78.12,72.4z M46.58,111.22c0.51-13.89,12.55-24.21,25.98-22.15
			c3.02,0.46,6.14,1.77,8.72,3.44c7.5,4.86,14.14,10.75,18.97,18.42c3.14,4.99,6.19,10.03,9.32,15.1
			c-7.72,1.45-9.99-7.08-16.39-8.42c1.8,2.05,3.6,4.1,6.38,7.27c-5.22-0.59-8.98-1.02-14.13-1.6c4.18,3.23,7.83,3.3,11.27,4.01
			c3.5,0.73,7.02,1.41,10.49,2.3c11.25,2.9,17.92,10.48,21.61,21.64c-8.69-0.19-13.39-6.47-19.06-11.28
			c1.12,4.76,5.08,7.22,8.75,10.83c-2.18,0.33-3.83,0.58-5.97,0.9c0.9,0.73,1.37,1.43,1.83,1.43c10.42-0.1,19.66,4.2,29.24,7.44
			c4.13,1.4,8.65,1.96,13.04,2.25c9.58,0.63,17.52,4.19,23.46,11.81c-5.66,1.01-11.32,0.06-20.52-3.58
			c1.52,3.91,5.95,3.27,7.75,5.94c-13.98,3.93-19.45,2.21-27.61-10.07c-0.32,1.25-0.6,2.33-0.88,3.41c-4.26-2.09-8.27-4.3-12.5-6
			c-1.6-0.64-3.68-0.1-5.65,0.69c1.55,0.43,3.1,0.86,4.64,1.29c1.41,0.4,3,0.51,4.19,1.26c5.12,3.25,10.09,6.74,15.18,10.03
			c2.43,1.57,5.01,2.9,7.5,4.33c-6.41,2.9-11.55,3.12-21.72,0.78c-15.73-3.62-25.6-13.19-29.27-29.02c-0.93-4-1.91-7.98-2.86-11.97
			c-0.49,0.11-0.98,0.21-1.46,0.32c1.11,5.7,2.22,11.41,3.33,17.11c-0.27,0.25-0.54,0.51-0.81,0.76
			c-4.33-3.74-8.72-7.41-12.93-11.28c-1.02-0.94-1.65-2.47-2.11-3.85c-2.15-6.55-1.91-8.76,4.67-13.15
			c-4.77-0.23-5.34,0.21-8.82,7.05c-5.7-5.1-7.93-11.24-6.66-18.58c0.72-4.18,3.73-6.47,7.48-7.92c2.29-0.88,4.6-1.71,6.9-2.57
			c-0.16-0.51-0.32-1.03-0.48-1.54c-3.18,0.94-6.53,1.87-10.75,3.11c1.61-3.25,2.74-5.57,4.02-8.17c-3.83,2.27-6.87,7.49-9.32,14.7
			c-2.09,6.15,0.07,13,1.29,18.27c-11.24-2.99-10.23-13.07-12.49-20.69c-2.38,10.4,2.49,19.5,10.79,23.31
			c4.47,2.05,7.55,4.72,9.97,9.83c-3.61-0.58-6.47-1.1-9.61-1.41c-5.06-0.51-9.43,1.76-9.4,2.21c1.06,0,2.12,0.04,3.17-0.01
			c8.41-0.41,15.98,2.11,22.29,7.52c4.79,4.11,9.28,8.68,13.32,13.52c8.02,9.6,17.64,16.29,31.58,18.65
			c-6.05,3.51-11.13,6.17-17.12,5.47c-6.95-0.81-8.67-7.23-11.9-12.9c0.6,8.93,4.09,13.3,12.78,16.55
			c-5.93,3.93-11.5,3.48-17.29,0.06c-8.1-4.79-7.15-12.04-6.18-19.74c-1.06,2.38-2.13,4.76-3.29,7.37
			c-7.96-6.22-6.63-16.09-9.48-24.16c-0.46,0.14-0.91,0.28-1.37,0.42c0.64,4.02,1.29,8.05,1.94,12.12
			c-7.56-1.38-10.07-4.01-12.7-13.16c-1.62,5.6-0.1,9.2,4.92,12.86c2.34,1.7,6.01,1.95,6.7,5.6c-6.52-0.42-12.97-1.05-18.19-5.7
			c-5.6-4.99-8.44-11.01-7.18-18.63c0.31-1.84,0.65-3.67,0.5-5.7c-2.16,2.52-2.45,5.88-3.71,10.01
			c-4.88-12.46-3.58-23.95,0.19-34.99c3.67-10.76,7.99-21.58,19.13-27.37c-12.06,2.67-16,13.37-21.93,22.64
			C45.67,116.95,46.48,113.9,46.58,111.22z M71.76,203.03c-11.32-0.42-19.55-10.98-17.12-22.55c8.22,1.12,16.69,1.17,24.59,4.19
			c2.75,1.05,5.45,3.39,7.15,5.84c3.62,5.25,6.81,10.73,14.44,13.33c-6.89,2.93-12.58,2.9-18.4,2.3c-6.91-0.71-9.8-5.56-11.37-11.91
			c-0.49,0.3-0.98,0.6-1.48,0.9C70.3,197.75,71.03,200.38,71.76,203.03z M41.22,113.05c1.28,6.91,3.29,13.19,2.95,19.97
			c-0.3,5.91-0.41,11.85-0.14,17.76c0.32,7.22,3.52,13.39,7.98,18.95c1.4,1.75,2.81,3.49,4.7,5.85c-6.88-0.83-12.96-2.5-15.77-8.08
			c-2.5-4.97-3.03-10.93-4.5-16.71c-2.75,5.84-0.44,12.25,1.16,17.87c-5.19-2.09-8.55-9.13-8.15-14.44
			c0.37-4.98,1.91-8.79,3.69-13.48c1.65-4.34,3.55-7.34,4.77-11.84c-3.45,3.73-4.69,6.9-6.39,10.61c-1.74,3.8-3.49,8.46-5,12.59
			C24.63,139.39,29.61,123.82,41.22,113.05z M23.54,212.96c6.44,2.09,19.25,14.26,27.64,18.76
			C41.43,232.18,31.31,224.98,23.54,212.96z M33.4,205.63c-0.41-2-1.08-2.84-2.63-4.03c0.51,3.44,1.33,6.97,1.95,11.14
			c-9.59-4.92-14.94-12.13-16.3-21.89c-1.79-12.76-0.15-25.29,4.09-37.46c0.18-0.53,0.81-0.91,1.41-1.54
			c2.6,15.24,13.25,22.47,25.89,26.54c1.54,6.72,2.7,12.81,4.17,19.23c-5.26-0.88-11.07-3.14-16.45-6.41
			c-5.78-3.51-9.59-10.24-11.1-15.77c-0.88,5.78,2.84,10.03,5.35,15.12c-2.53,0.81-4.6,1.78-7.15,2.6l0.33,1.2
			c2.7-0.58,6.59-1.15,9.86-1.89c6.55,4.56,13.84,7.22,22.1,8.59c2.26,0.38,4.25,2.41,6.59,3.82c-6.26,4.42-12.7,4.07-19.52,3.18
			c3.46,2.84,5.83,3.51,10.19,2.84c1.45-0.22,2.96-0.54,4.24-1.2c8.02-4.07,15.53-0.82,24.12,1.26c-8.92,8-18.16,9.73-28.52,6.06
			c5.43,4.8,14.12,5.35,21.72,1.68c2.66-1.28,5.18-2.85,7.71-4.38c3-1.81,6.16-2.53,9.68-1.98c-4.36,11.87-13.23,17.63-25.57,17.63
			C52.8,229.97,36.42,220.24,33.4,205.63z M170.93,316.61c-4.55,0.48-9.1,0.91-13.31,1.32c2.69-3.18,4.92-5.95,7.29-8.61
			c5.12-5.75,11-5.66,15.97,0.26c1.33,1.58,2.41,3.37,3.89,5.47C179.85,315.61,175.39,316.14,170.93,316.61z M224.66,318.94
			c-0.18,3.57-0.03,7.16-0.49,10.8c-4.15-5.71-5.5-12.12-5.91-19.2c-0.65,1.82-1.29,3.65-2.04,5.76
			c-6.89-5.63-10.08-13.09-10.75-21.51c-0.64-8.02-2.7-15.32-7.35-21.95c-1.71-2.45-2.78-5.35-4.58-7.87
			c-0.19,8.41,8.44,13.84,7.95,22.29c-4.97-3.57-10.1-6.73-14.53-10.67c-2.11-1.88-2.88-5.26-4.22-7.88
			c-0.22,0.46-0.69,1.48-1.51,3.24c-2.49-2.95-4.74-5.62-7.89-9.35c0.74,2.41,0.86,3.8,1.53,4.83c3.5,5.37,7.87,9.83,13.39,13.28
			c3.35,2.09,6.71,4.59,9.12,7.65c2.11,2.67,3.09,6.32,4.2,9.67c1.03,3.11,1.58,6.38,2.33,9.58c-6.12-1.07-8.92-6.15-12.38-10.97
			c0.02,4,0.98,6.42,4.18,9.21c2.54,2.21,5.39,4.07,8.18,5.98c9.9,6.79,15.3,16.15,16.41,28.62c-0.33-0.02-0.84,0.08-0.95-0.08
			c-5.65-8.61-12.86-15.65-21.34-21.43c-7.88-5.37-12.65-13-15.14-22.02c-1.24-4.5-3.86-7.72-6.87-11.1
			c-2.76-3.1-4.32-7.26-6.19-10.56c-0.06,1.24-0.16,3.29-0.27,5.61c-5.81-1.44-5.98-6.63-7.68-11.42c-1.08,5.7,0.32,9.72,4.1,12.57
			c2.19,1.65,4.63,2.99,6.78,4.69c4.77,3.77,6.37,6.94,6.72,12.22c-5.11-2.3-10.28-5.18-15.81-6.98
			c-7.62-2.48-12.55-7.53-16.2-14.27c-0.97-1.8-1.95-3.59-3.26-6.02c-1.82,3.4,1.05,5.14,1.16,7.87c-1.34-0.2-2.58-0.38-4.61-0.69
			c5.33,4.58,10.1,8.67,15.37,13.19c-14.63,1.74-22.65-3.94-28.98-19.26c0.28,2.61,0.56,5.22,0.84,7.83
			c-7.76,0.91-10.6-1.68-15.77-14.08c-0.82,7.09,3.58,14.68,10.53,16.71c4.46,1.3,7.89,3.49,11.14,6.72
			c2.77,2.74,6.35,4.66,10.98,7.94c-8.61,0.48-15.72,0.88-22.83,1.28c-0.07,0.2-0.15,0.4-0.22,0.6c1.18,0.43,2.33,1.11,3.55,1.25
			c7.01,0.86,13.91,0.08,20.74-1.65c8.12-2.05,16.23-3.17,24.1,1.01c0.54,0.28,0.97,0.76,1.68,1.34c-6.35,4.02-13.44,3.4-21.07,3.89
			c3.65,3.6,7.56,1.13,11.73,2.66c-1.97,1.93-3.39,4.04-5.38,5.11c-4.73,2.53-9.76,3.58-15.29,2.45
			c-23.38-4.77-40.89-26.3-39.46-49.08c0.41-6.59,2.25-12.78,7.67-18.08c0.83,1.68,1.44,2.92,2.05,4.16
			c4.27,8.68,11.13,13.61,20.84,14.4c11.7,0.95,22.62-2.39,33.38-6.29c8.67-3.15,17.48-4.91,26.71-4.13
			c14.62,1.24,26.96,10.68,29.38,23.79c0.75,4.05,0.56,8.28,0.83,12.9c-7.56-5.38-8.76-7.35-12.45-20.13
			c-1.68,6.36,0,11.79,3.93,15.41C223.84,297.17,225.23,307.59,224.66,318.94z M160.61,232.58c5.5,1.94,9.11,5.67,12.09,10.59
			c1.9,3.15,4.92,5.63,7.53,8.52c-7.27,2.47-14.62,1.46-21.77-1.65c-7.23-3.15-13.1-7.66-14.4-16.29c-1,5.41-1,5.41,3.03,12.52
			c-8.7,1.47-15.49-1.49-21.02-8.16c1.37,4.81,4.24,8.7,8.91,9.41c9.81,1.5,19.35,3.58,28.42,7.68c1.1,0.5,2.47,0.38,3.82,0.57
			c-6.61,4.79-12.95,5.41-31.58,2.86c3.05,1.85,5.08,3.08,7.27,4.41c-9.78,3.54-21.71-1.46-25.51-10.48
			c-1.76-4.17-1.75-8.45,0.64-12.19c1.9-2.97,4.34-5.84,7.15-7.92c7.53-5.56,15.98-9.4,25.09-11.71c6.79-1.72,13.02-0.82,18.38,3.94
			c6.1,5.41,12.92,9.32,20.87,11.49c7.97,2.18,12.43,8.18,15.65,16.1c-6.72-0.95-12.92-1.79-19.11-2.73
			c-5.13-0.78-9.05-3.55-11.58-8c-3.08-5.39-7.33-9.1-13.24-11.14c-2.23-0.77-4.13-2.49-6.96-4.26
			C155.43,230.14,157.92,231.63,160.61,232.58z M225.11,239.69c-5.39-10.01-11.64-19.09-10.95-30.88c0.17-2.93-1.22-5.94-2.95-8.68
			c0.53,4.17,1.13,8.34,1.55,12.53c0.44,4.34,0.7,8.7,1.04,13.16c-5.19-3.81-10.4-7.68-11.1-15.32c-0.22-2.35-1.75-4.71-3.11-6.79
			c-2.97-4.52-6.22-8.86-9.32-13.22c-0.16,0.76-0.41,2.04-0.73,3.59c-3.4-0.76-6.78-1.52-10.15-2.28c-0.14,0.43-0.28,0.86-0.42,1.3
			c2.62,1.03,5.23,2.08,7.85,3.09c8.98,3.47,13.93,10.9,13.93,21.32c-8.04,0.57-11.35-4.77-14.01-12
			c-0.17,7.41,2.61,11.92,9.37,14.21c8.26,2.8,14.05,8.49,19.22,14.98c5.74,7.21,8.13,18.21,6.34,27.92
			c-5.35-4.19-9.64-8.95-12.13-15.07c-2.88-7.11-7.74-12.27-13.7-17.03c-6.23-4.97-11.7-10.97-17.1-16.9
			c-1.89-2.07-2.59-5.25-3.75-7.96c-1.31-3.06-2.52-6.16-3.77-9.24c-0.41,0.14-0.82,0.28-1.23,0.42c0.65,1.95,1.29,3.91,1.97,5.97
			c-4.74-1.99-9.37-3.92-14-5.86c-0.23,0.45-0.46,0.9-0.69,1.36c1.05,0.63,2.03,1.49,3.17,1.86c6.58,2.14,11.38,6.06,14.3,12.54
			c1.16,2.58,3.64,4.58,5.57,6.79c2.46,2.81,4.98,5.57,8.27,9.24c-6.44-0.23-9.71-3.69-13.32-6.41c-3.55-2.67-7.01-5.46-10.42-8.3
			c-3.48-2.91-6.85-5.94-10.86-8.58c0.88,1.74,1.77,3.48,2.66,5.24c-10.43,1.81-12.95,0.71-18.76-8.44
			c-1.43,3.22,1.63,5.05,1.86,7.99c-5.53,1.77-10.35-0.88-16.06-3.31c5.24,8.11,12.3,5.06,19.37,7.67
			c-6.44,2.1-10.8,3.07-16.36,4.58c-9.44,2.56-16.69,3.53-24.98-1.85c2.19,5.05,5.21,5.93,14.24,6.72
			c-7.63,9.98-27.36,15.67-45.78,13.54c3.06-1.21,4.76-1.83,6.42-2.55c6.81-2.96,12.21-7.58,15.82-14.09
			c3.6-6.47,8.92-10.37,16.02-12.49c4.61-1.38,9.01-3.63,13.28-5.92c8.82-4.73,17.99-8.27,27.81-10.34c7-1.48,13.89-3.55,20.77-5.57
			c12.16-3.56,24.15-4.46,35.61,2.2c9.81,5.7,16.09,14.17,18.68,25.26C226.54,222.38,227.33,230.72,225.11,239.69z M226.43,161.28
			c-9.01-8.14-11.54-20.49-21.17-27.41c2.89,4.65,5.77,9.3,9.18,14.78c-14.46-1.63-19.72-10.67-22.1-22.53
			c-0.99,5.33,0.06,9.11,4.33,16.98c-7.31-2.21-11.98-9.41-11.21-17.32c0.21-2.11,0.93-4.26,0.66-6.29
			c-0.58-4.34-1.13-8.81-2.66-12.85c-1.92-5.07-4.81-9.77-7.31-14.62c-0.06-0.12-0.37-0.12-1.2-0.35c0.71,2.34,1.32,4.38,2.03,6.74
			c-4.99-2.14-6.39-6.71-9.05-11.83c-0.82,4.63,1.02,6.92,2.61,9.2c0.95,1.37,2.15,2.66,3.47,3.67c8.9,6.77,9.91,15.6,6.93,26.04
			c-4.57-4.4-9.28-8.23-13.12-12.8c-5.36-6.38-7.92-13.81-6.17-22.4c1.2-5.88,1.97-11.84,3.12-18.89c-1.41,2.54-2.38,4.29-3.82,6.89
			c-1.99-6.48-6.58-9.6-11.16-13c-6.36-4.73-7.84-12.25-9.35-19.53c-0.42-2.01-0.41-4.11-0.98-6.16c-2.03,4.95,0.53,9.85,0.52,14.78
			c-0.49,0.44-0.98,0.87-1.47,1.31c-1.57-2.34-3.15-4.68-4.72-7.02c0.77,7.43,9.02,9.07,10.99,16.47
			c-4.53-1.05-8.77-2.04-13.02-3.03c3.76,3.65,8.55,4.59,13.21,5.83c9.17,2.44,13.52,8.62,12.76,18.27
			c-0.03,0.37-0.35,0.72-0.85,1.72c-0.95-1.23-1.77-2.24-2.54-3.28c-3.15-4.27-7.34-6.93-12.49-8.13c-0.62-0.14-1.26-0.17-1.88-0.31
			c-10.35-2.43-12.87-5.47-13.38-16.11c-0.02-0.42-0.01-0.85-0.05-1.27c-1.76-18.33,6.02-22.73,17.49-27.79
			c5.89-2.6,11.95-5.19,18.82-5.48c-2.14,3.78-4.4,7.1-6,10.72c-4.27,9.65-2.78,16.86,4.66,24.26c1.5,1.49,3.12,2.87,4.63,4.35
			c5.2,5.1,9.34,10.96,11.89,17.81c3.89,10.44,10.39,18.22,21.11,22.21c7.21,2.68,12.4,7.93,16.26,14.47
			c0.67,1.14,0.82,2.59,1.18,3.91c-3.38-0.92-6.92-1.49-10.04-2.95c-2.12-0.99-3.83-3.14-5.34-5.07c-0.91-1.16-1.09-2.89-1.85-5.09
			c-2.26,3.88,1.01,6.06,1.05,9.48c-4.55-2.3-7.11-5.78-9.68-9.86c0,0.82-0.25,1.74,0.04,2.44c2.62,6.4,7.26,10.53,14.25,10.96
			c10.2,0.63,15.58,7,18.76,15.57C226.32,145.72,227.13,153.12,226.43,161.28z M228.42,57.74c-0.22,6.98-0.17,13.97-0.4,20.95
			c-0.08,2.48-0.63,4.94-1.05,7.97c-4.38-7-5.89-19.75-3.17-27.09c-3.74,2.26-4.61,5.35-4.35,8.65c0.25,3.31,0.99,6.89,0.97,10.31
			c-2.58-2.45-7.89-10.08-7.17-14.86c0.86-5.69,2.93-11.2,3.98-17.06c-0.91,1.24-1.82,2.49-3,4.1c-1.97-4.82-4.25-6.96-5.11-10.67
			c-0.72-3.11-2.07-6.06,1.17-11.93l-1.72,0.13c-1.29,2.59-1.71,3.56-2.66,5.46c-2.21-1.58-4.17-2.98-6.12-4.37
			c-0.19,0.2-0.38,0.4-0.57,0.6c2.14,2.76,4.29,5.52,6.43,8.27c-0.25,0.31-0.51,0.61-0.76,0.92c-3.39-0.65-6.79-1.3-10.18-1.95
			c-0.11,0.39-0.22,0.77-0.33,1.16c3.19,1.09,6.46,1.96,9.55,3.29c5.83,2.5,9.7,11.98,5.77,17.13c-6.63,0.14-8.08-4.87-9.22-11.4
			c-1.71,7.99-0.43,10.01,8.25,15.08c0.81,3.42,1.62,6.83,2.5,10.55c-3.12-1.27-6.26-2.02-8.78-3.71c-2.32-1.55-4.73-3.83-6.11-6.26
			c-1.42-2.51-1.71-5.55-2.44-8.41c-0.87-3.4-3.12-5.08-3.58-4.9c1.56,6.39,3.26,11.81,5.42,18.29c-4.5,0.85-6.41-2.71-10.13-4.64
			c1.1,2.86,3.45,4.87,5.3,5.89c3.11,1.71,4.85,2.31,8.26,3.18c6.14,1.57,11.44,4.33,15.68,9.01c10.34,11.41,15.59,27.37,10.2,46.97
			c-3.86-8.15-9.69-14.84-7.87-24.32c-0.72,2.09-1.44,4.18-2.16,6.28c-7.15-6.11-4.34-10.59,1.45-18.89
			c-4.98,2.34-6.07,3.49-9.16,12.12c-7.25-6.38-6.42-15.1-5.09-23.48c-0.95,1.77-2.33,4.34-3.8,7.06c-2.02-3.42-3.66-6.19-5.74-9.71
			c-0.69,3.66,1.2,5.84,2.31,8.26c2.07,4.51,3.98,9.09,6.49,14.85c-11.95-4.74-17.26-13.07-18.83-23.53
			c-2.98-19.79,1.94-37.76,14.41-53.51c5.11-6.45,11.85-9.33,20.09-8.5c6.34,0.64,10.46,4.71,11.07,11.01
			c0.16,1.68,0.18,3.39,0.13,5.08c-0.08,2.92-0.27,5.85-0.46,9.8c-6.33-5.63-6.11-13.09-9.87-18.6c0.82,6.34,1.62,12.72,5.47,18.04
			C227.28,45.65,228.62,51.4,228.42,57.74z M433.98,208.69c0-2.37,0-4.22,0-6.06c-5.22,14.79-11.58,20.2-24.23,19.53
			c2.21-2.02,4.4-4.01,6.59-6.01c-0.27-0.47-0.55-0.93-0.82-1.4c-3.45,3.31-7.15,6.13-12.01,5.23c-3.28-0.6-6.64-1.24-9.67-2.55
			c-4.01-1.74-7.73-4.15-11.47-6.94c6.21-2.01,12.15-4.09,18.77-2.62c5.53,1.23,11.16,2.65,16.87,0.85
			c1.33-0.42,2.56-1.14,3.63-2.55c-3.17,0.36-6.36,1.1-9.51,0.96c-3.26-0.15-6.48-1.17-10.25-1.91c2.97-4.97,7.28-5.94,11.55-6.51
			c10.56-1.42,17.51-7.7,22.79-16.36c0.59-0.97,0.76-2.2,0.62-3.78c-6.07,9.54-13.32,17-25.91,17.78
			c1.81-5.52,3.36-10.24,5.11-15.58c7.52-3.39,16.37-5.84,21.05-14.3C446.01,174.6,444.39,198.26,433.98,208.69z M362.23,218.06
			c-0.38-0.08-0.99-0.35-1.09-0.22c-5.14,6.43-11.74,6.89-18.9,4.52c-4.6-1.52-9.07-3.42-13.87-5.26c4.44-2.9,8.56-5.59,12.68-8.28
			c-0.26-0.45-0.53-0.91-0.79-1.36c-3.08,1.67-6.04,3.64-9.26,4.93c-3.5,1.41-7.23,2.31-10.91,3.2c-3.66,0.88-7.4,1.48-11.61,2.3
			c0.83-6.01,4.84-9.33,9.24-12.9c-1.25,0.28-2.65,0.3-3.74,0.88c-4.17,2.22-6.42,6.11-7.9,10.35c-1.04,2.97-2.73,5.14-5.29,6.84
			c-8.49,5.64-14.77,13.22-19.23,22.31c-3.82,7.8-9.19,14.06-16.73,18.54c-3.7,2.2-7.05,4.99-11.3,8.03
			c2.47-7.59,6.11-13.35,11.46-18c3.44-2.99,6.11-6.43,6.96-11.03c1.44-7.77,6.08-12.78,13.28-15.68c1.29-0.52,2.43-1.42,4.91-2.9
			c-6.66-0.04-9.96,4.01-14.3,5.76c-0.39-0.7-0.78-1.4-1.25-2.24c-0.43,0.4-1.07,0.7-1.2,1.15c-1.18,4.04-2.15,8.15-3.43,12.17
			c-1.49,4.69-3.44,9.11-9.45,10.88c-0.12-1.8-0.38-3.34-0.3-4.87c0.22-4.01,0.5-8.02,0.9-12.02c0.86-8.63,5.85-13.77,14.53-15.02
			c2.72-0.39,5.45-0.68,8.19-0.91c8.15-0.68,13.6-5.26,17.42-12.12c5.83-10.47,14.17-14.72,25.71-12.03
			c5.47,1.28,10.8,3.58,15.87,6.08c6.81,3.34,13.23,7.47,19.97,10.96c3.59,1.86,6.1,4.5,7.74,8.04c2.89,6.24-0.06,11.73-6.8,12.57
			c-6.81,0.85-12.71-1.05-17.33-6.3c5.97-0.29,11.6-1.39,15.41-6.71c0.24-0.33,0.4-0.73,0.53-1.12
			C362.42,218.45,362.28,218.24,362.23,218.06z M274.3,201.51c-0.23-0.43-0.45-0.86-0.68-1.3c1.37-1.9,2.74-3.81,4.11-5.71
			c-3.29,0.39-5.06,2.59-6.43,5.01c-3.52,6.27-8.34,10.95-14.84,14.22c-3.77,1.89-7,4.85-10.45,7.35
			c1.05-9.96,5.19-18.47,12.58-25.21c4.29-3.91,9.43-6.6,15.43-6.46c8.83,0.21,17.65,0.73,27.53,1.17
			c-3.31,6.14-5.73,11.67-9.14,16.5c-1.65,2.33-4.98,4.24-7.84,4.79c-5.97,1.15-12.11,0.89-18.2-0.95
			c2.62-4.49,5.89-7.02,11.08-7.72c4.62-0.62,9.53-1.46,14.55-5.73C285.18,199.03,279.74,200.27,274.3,201.51z M312.05,145.94
			c1.39-1.46,2.52-2.6,3.6-3.78c3.69-4.06,7.28-8.22,11.08-12.18c2.61-2.73,5.43-5.27,8.3-7.74c4.39-3.79,9.25-7.15,10.69-13.35
			c-4.52,5.16-9.11,10.18-15.86,13.31c-0.15-2.58-0.27-4.75-0.39-6.92c-2.17,9.14-6.22,16.82-15.09,22.75c0-5.5,0-10.03,0-14.56
			c-0.49-0.11-0.98-0.22-1.46-0.32c0.65,9.16-0.3,17.66-8.37,23.32c-5.61,3.93-11.84,5.31-18.93,4.77c1.2-3.92,4.14-6.01,6.95-8.14
			c3.68-2.79,6.17-6.21,6.27-11.22c-2.4,3.98-4.64,8.07-9.61,10.05c-0.49-7.24,1.52-13.28,6.55-17.96c3.38-3.14,7.21-5.86,11.1-8.36
			c4.62-2.96,9.43-5.66,14.31-8.15c3.34-1.7,6.89-3.07,10.47-4.21c4.94-1.56,8.99-4.14,11.44-9.17c-2.93,1.92-5.86,3.83-9.55,6.24
			c1.15-3.62,2-6.14,2.71-8.69c0.14-0.52-0.23-1.18-0.61-2.89c-1.92,7.73-6.09,12.18-13.39,14.34c1.34-3.39,2.5-6.31,3.65-9.23
			c-0.39-0.22-0.77-0.44-1.16-0.66c-3.91,8.23-8.72,15.48-18.31,17.79c2.16-6.07,4.3-11.95,6.35-17.86
			c3.16-9.1,9.89-13.38,19.13-14.11c9.3-0.74,15.84,3.72,20.15,11.6c2.77,5.04,4.35,10.47,4.49,16.35c0.2,8.44-2.75,15.5-9.25,20.64
			c-8.15,6.45-12.23,14.83-13.72,24.84c-0.46,3.12-1.15,6.24-2.06,9.27c-4.18,13.97-13.55,20.26-28.2,21.31
			c-5.57,0.4-11.24-0.62-16.81-0.99c4.42-3.86,8.36-7.54,12.56-10.91c3.05-2.45,6.61-3.73,10.65-2.68c3.17,0.83,6.33,1.66,9.86,1.68
			c-1.62-1.01-3.25-2.02-5.34-3.31c3-2.04,6.54-3.3,7.79-7.47c-8.98,5.57-10.86,6.13-20.32,5.98c1.4-2,2.62-3.74,3.84-5.48
			c-0.33-0.28-0.66-0.55-0.99-0.83c-1.52,1.81-3.5,3.4-4.48,5.47c-5.51,11.67-15.78,15.05-27.42,16.22
			c-1.01,0.1-2.03,0.18-3.26-0.11c6.3-4.5,14.44-6.99,16.93-17.08c-1.52,1.44-2.25,1.86-2.59,2.49c-2.55,4.72-6.81,7.26-11.39,9.66
			c-4.2,2.2-8.06,5.06-12.05,7.64c-0.11-0.78-0.48-1.66-0.21-2.28c5.04-11.74,13.23-20.07,25.96-23.08
			c7.2-1.7,14.25-3.51,20.97-6.88c3.4-1.71,7.72-1.77,11.66-2.15c3.29-0.32,6.63-0.09,9.22-2.95
			C322.65,145.94,317.67,145.94,312.05,145.94z M260.2,183.37c-0.02,0.01-0.04,0.03-0.06,0.04l-0.31-0.06L260.2,183.37z
			 M357.76,202.86c4.18-3.06,7.62-6.23,11.63-8.32c4-2.08,8.58-3.06,13.02-5.1c-3.1,0-6.19,0-9.29,0c1.56-4.77,5.97-5.68,9.88-6.19
			c8.72-1.12,17.54-1.5,26.28-2.18c1.25,11.62-6.64,20.48-19.59,22.23c1.39-1.9,2.67-3.39,3.65-5.06c0.91-1.55,1.5-3.28,1.86-5.21
			c-4.21,5.34-8.35,10.57-15.55,11.69C372.35,205.86,365.16,205.85,357.76,202.86z M421.45,140.97c-0.37-3.88-0.06-7.83-0.06-12.81
			c7.52,7.1,11.2,15.12,13.01,24.16c1.42,7.08-0.77,12.87-6.35,17.4c-0.31,0.25-0.73,0.39-1.12,0.51c-0.18,0.06-0.41-0.05-1.18-0.16
			c1.06-5.23,2.11-10.45,3.16-15.66c-0.41-0.12-0.83-0.23-1.24-0.35c-0.49,1.21-1.09,2.39-1.44,3.64c-0.8,2.84-1.6,5.69-2.19,8.58
			c-1.16,5.69-4.6,8.8-10.29,9.58c-2.24,0.31-4.47,0.71-8.01,1.28c2.21-2.35,3.43-3.73,4.74-5.03
			C419.16,163.49,422.59,153.09,421.45,140.97z M413,110.31c2.94,5.94,3.99,12.31,2.67,19.53c-4.82-3.84-6.62-8.94-8.62-13.98
			c-1.47-3.71-3.23-7.32-5.08-10.86c-0.58-1.12-1.86-1.87-2.82-2.79c-0.16,0.14-0.33,0.28-0.49,0.42c1.65,3.3,3.5,6.52,4.88,9.94
			c1.42,3.51,2.08,7.34,3.6,10.8c1.43,3.26,3.46,6.28,5.39,9.31c5.28,8.28,6.51,16.84,1.99,25.85c-0.28,0.56-0.69,1.05-1.09,1.54
			c-0.11,0.13-0.4,0.11-0.65,0.18c-0.17-3.53-0.34-7.05-0.51-10.57c-0.27-0.02-0.54-0.04-0.81-0.05
			c-0.66,4.94-0.82,10.01-2.12,14.78c-1.46,5.33-5.59,8.87-10.48,11.34c-4.8,2.42-9.94,2.51-15.54,1.69
			c6.45-4.23,11.45-9.28,12.5-18.36c-4.22,4.77-4.4,11.51-11.44,13.06c-0.14-3.02-0.27-5.97-0.4-8.91c-0.39-0.05-0.79-0.1-1.18-0.15
			c-0.26,1.67-0.68,3.34-0.74,5.02c-0.24,6.48-2.06,11.82-8.24,15.34c-2.59,1.47-4.35,4.5-6.3,6.98c-3.68,4.68-7.93,8.06-14.62,6.97
			c5.17-2.42,7.31-7.02,9.64-11.72c1.65-3.34,4.47-6.09,6.78-9.1c1.65-2.15,3.33-4.27,5.84-7.5c-4.91,0.84-5.65,4.4-7.77,6.28
			c-2.18,1.94-4.03,4.26-6.26,6.67c-0.89-1.63-1.61-2.96-2.69-4.95c-0.34,1.38-0.66,1.95-0.58,2.46c0.23,1.45,0.85,2.87,0.92,4.31
			c0.24,4.98-3.91,9.93-8.84,9.51c-5.56-0.48-11.03-2.11-16.53-3.24c-0.04-0.52-0.08-1.05-0.12-1.57c1.92-0.88,3.78-1.95,5.77-2.6
			c6.93-2.28,12.54-6.47,16.13-12.66c9.73-16.74,25.5-21.66,43.26-23.02c1.26-0.1,2.54-0.07,3.79-0.21
			c0.31-0.03,0.58-0.46,1.64-1.36c-8.01-2.12-15.19,0-22.72,1.38c2.79-5.76,6.61-9.7,11.92-12.28c3.75-1.82,7.3-4.01,9.57-9.28
			c-3.77,2.69-6.62,4.71-9.46,6.74c2.62-12.7-0.91-23.26-8.33-32.95c0.53,1.76,1.07,3.51,1.83,6.02c-3.35-2.1-6.16-3.88-8.98-5.65
			c-0.23,0.33-0.46,0.66-0.7,0.98c2.84,2.6,5.87,5.02,8.49,7.82c7.86,8.4,7.37,18.52-1.1,26.78c-1.68-4.03-3.38-8.09-5.08-12.16
			c-0.42,0.16-0.84,0.32-1.26,0.48c0.51,1.73,0.98,3.47,1.53,5.19c2.67,8.28,0.73,14.01-6.58,18.45c-3.93,2.39-8.09,4.41-12.7,6.89
			c0.59-7.54,4.77-12.84,7.8-19.08c-1.03,0.75-2.25,1.32-3.05,2.26c-3.9,4.6-5.95,10.13-7.86,15.78c-1.28,3.78-2.8,7.55-4.76,11.02
			c-6.34,11.23-16.47,15.75-29.47,16c6.24-6.66,12.14-12.97,18.04-19.27c-0.17-0.25-0.34-0.51-0.51-0.76
			c-1.52,0.85-3.03,1.7-5.26,2.95c0.87-3.78,1.63-7.07,2.19-9.54c4.75-3.93,9.02-7.26,13.02-10.89c1.04-0.94,1.24-2.8,1.39-4.56
			c-3.48,4.42-6.43,9.31-13.19,9.74c0.55-8.42,4.75-14.34,10.95-19.25c6.51-5.15,13.84-5.7,21.92-3.79
			c-0.76-3.8-4.18-2.51-6.24-4.11c1.07-1.59,2.04-3.03,3.8-5.63c-4.1,2.42-6.99,4.13-11.14,6.59c2.88-9.57,5.61-17.34,12.27-23.02
			c6.34-5.4,13.43-8.71,21.99-7.86C402.73,94.73,408.7,101.6,413,110.31z M387.06,79.1c3.21,3.48,5.49,5.94,8.51,9.21
			c-3.6,0-5.98,0-8.51,0C387.06,85.71,387.06,83.15,387.06,79.1z M344.9,62.9c1.19-5.04,4.41-7.58,9.55-7.3
			c1.66,0.09,3.4,0.39,4.92,1.04c8.4,3.56,15.02,9.29,19.96,16.97c0.23,0.35,0.4,0.74,0.59,1.12c4.7,9.58,2.21,15.54-8.18,19.53
			c-0.18,0.26-0.36,0.52-0.55,0.78c-0.13-0.13-0.26-0.26-0.39-0.39c0.25-0.19,0.51-0.38,0.76-0.56c0.87-5.31,1.75-10.62,2.62-15.94
			c-0.25-0.07-0.49-0.15-0.74-0.22c-0.81,1.84-1.61,3.67-2.57,5.86c-1.4-1.56-2.7-3-3.99-4.44c5.12,9.22,2.2,16.64-4.77,23.91
			c-1.59-4.83-3.18-9.24-4.46-13.75c-0.91-3.24,0.02-6.17,2.11-8.88c3.05-3.95,4.5-8.45,3.95-14.74c-1.81,4.99-3.21,8.86-4.61,12.73
			c-0.34-0.03-0.68-0.06-1.02-0.09c-1.08-5.28-2.16-10.56-3.24-15.84c-0.49,0.09-0.98,0.17-1.48,0.26c0.59,3.25,1.42,6.49,1.7,9.77
			c0.3,3.52,0.07,7.09,0.07,11C346.75,78.9,343.02,70.93,344.9,62.9z M311.15,29.5c8.07,2.11,15.4,5.75,21.95,10.94
			c3.28,2.6,5.6,5.8,5.97,10.07c0.34,3.99,1,8.07,0.53,11.98c-0.77,6.31-4.17,10.99-10.66,12.8c-0.81,0.23-1.6,0.58-2.43,0.73
			c-7.27,1.39-11.76,6.39-17.16,11.68c-1.66-10.37,3.19-18.48,11.7-19.77c4.62-0.7,9.09-2.35,13.62-3.57
			c-0.11-0.49-0.22-0.98-0.33-1.47c-4.15,0.75-8.31,1.51-13.21,2.4c2.61-7.09,9.63-10.66,10.2-18.07c-1.78,2.32-3.56,4.63-5.76,7.5
			c-0.85-3.78-1.5-6.71-2.16-9.65c-0.35,0.04-0.7,0.09-1.05,0.13c-0.05,1.09-0.41,2.28-0.09,3.25c2.28,6.86-0.79,11.87-5.47,16.35
			c-0.61,0.58-1.27,1.14-1.99,1.57c-5.45,3.22-7.12,8.13-10.41,13.95c-1.97-3.57-2.31-4.19-4.17-7.57c-0.48,4.12,0.9,6.65,1.87,9.19
			c5.94,15.68,3.93,24.15-8.36,35.77c-2.89,2.74-5.4,5.88-8.06,8.81c-4.01-7.06-2.35-17.71,3.79-23.5c1.84-1.74,3.9-3.26,5.69-5.05
			c3-3,4.31-6.19,3.57-10.46c-2.03,4.37-3.71,9.52-8.9,11.62c0.75-2.87,1.4-5.59,2.02-8.01l-1.03-0.31
			c-6.62,11.82-13.95,25.51-9.66,40.56c2.62,9.18-1.08,19.11-10.02,24.62c1-3.61,1.96-7.1,2.93-10.59
			c-0.44-0.15-0.88-0.29-1.32-0.44c-1.13,2.76-1.98,5.67-3.46,8.23c-1.56,2.69-3.71,5.04-6.19,8.31c-0.93-2.84-1.62-4.73-2.17-6.66
			c-2.24-7.82-1.07-10.87,5.59-15.69c2.85-2.06,6.9-4.41,8.13-8.38c-4.34,3.29-9.85,6.19-13.68,10c-3.02,3.01-4.42,7.89-2.97,12.25
			c2.5,7.53,1.71,14.24-2.73,21.04c-3.2,4.9-5.05,10.67-7.53,16.04c-0.84,1.82-1.75,3.61-3.26,5.3c-1.28-6.03-2.38-12.19-0.66-17.9
			c1.65-5.45,5.06-10.37,7.91-15.93c-2.94,0.42-3.56,2.93-4.89,4.55c-1.43,1.75-2.65,3.67-4.31,6.01
			c-1.5-8.97-0.75-16.69,4.28-24.03c3.05-4.46,5.15-9.66,7.1-14.75c2.25-5.86,5.62-9.75,12.27-10.22c2.13-0.15,4.19-1.2,6.29-1.84
			c-0.1-0.45-0.21-0.89-0.31-1.34c-1.93,0.15-3.86,0.3-6.14,0.48c0.84-2.83,2.54-8.89,2.54-8.89s-1.11,0.03-1.38-0.43
			c-1.18,3.55-1.88,8.08-10.54,12.93c-2.62,1.47-4.15,5.14-5.63,8.08c-1.96,3.89-2.93,8.33-7.13,11.64
			c-1.22-5.62-0.32-10.38,1.85-14.91c5.34-11.14,12.32-20.62,24.5-25.25c8.35-3.17,13.94-9.41,17.23-17.64
			c3.66-9.19,8.95-17.08,16.31-23.83c9.9-9.08,11.15-17.22,5.61-29.65c-0.34-0.76-0.68-1.53-1.24-2.79
			C309.34,29.61,310.32,29.28,311.15,29.5z M304.66,34.84c4.9,7.63,3.73,15.99-2.64,21.79c-0.58-6.03,1.28-12.39-2.85-17.56
			c0.05,5.25,0.46,10.51,0.05,15.7c-0.44,5.53-4.17,9.43-8.53,14c-0.54-4.81-1.23-8.58-1.31-12.36c-0.09-4.38,0.16-8.79,0.64-13.14
			c0.54-4.88,0.89-9.57-3.35-13.29c0.96,4.17,3.09,8.25,0.19,13.1c-4.16-8.01-8.2-15.77-12.54-24.13
			C287.02,19.92,297.68,23.98,304.66,34.84z M271.77,69.55l-0.72-0.64c2.16-6.53,4.35-13.31,6.45-19.68
			c-0.45-0.17-0.9-0.34-1.35-0.52c-1.14,2.79-2.69,5.48-3.34,8.38c-2.1,9.44-6.4,13.16-16.6,15.66c0.41-3.16,0.88-6.83,1.28-9.91
			c6.58-3.35,8.96-7.98,8.65-14.1c-2.1,1.8-3.3,10.19-8.68,10.37c-3.55-5.4-1.76-13.44,4.43-17.18c2.1-1.27,4.69-1.73,7.07-2.51
			c1.5-0.49,3.04-0.86,4.38-2.12c-3.62,0.21-7.24,0.43-10.86,0.64c2.18-2.77,4.36-5.54,6.54-8.3c-0.08-0.2-0.15-0.39-0.23-0.59
			c-2.47,1.68-4.95,3.37-7.8,5.31c-1.06-2.12-2.12-4.23-3.18-6.35c-0.21,0.11-0.42,0.22-0.64,0.34c0.44,3.69,1.77,7.56,1.07,11.02
			c-0.77,3.78-3.41,7.18-5.42,11.1c-1.21-1.57-2.28-2.97-3.74-4.87c-1.01,3.73,1.25,5.79,2.23,8.14c4.15,9.98,2.85,16.95-5.17,24.97
			c-0.16-6.45,4.45-13.16-2.86-19.44c4.46,9.53-0.3,17.24-1.02,25.4c-0.52,0.02-1.04,0.04-1.55,0.06
			c-0.56-4.05-1.35-8.09-1.61-12.17c-0.4-6.11-0.67-12.25-0.5-18.36c0.08-2.88,1.02-5.85,2.12-8.55c3.18-7.76,6.64-15.4,10.29-23.76
			c-3.73,1.9-3.75,1.9-5.97,8.41c-1.07,3.14-1.67,6.53-5.03,9.05c-0.49-2.63-1.08-4.79-1.28-6.99c-0.52-5.67,0.01-11.18,5.02-14.87
			c4.91-3.61,10.58-3.37,15.66-0.89c4.07,1.98,8.26,4.72,11.05,8.2c12.83,16.05,17.52,34.48,13.42,54.68
			c-1.94,9.54-7.72,16.57-17.42,20.59c0.31-5.05,2.02-8.96,4.99-12.41c2.32-2.69,4.18-5.6,4.4-10.16c-2.5,3.61-4.51,6.51-7.02,10.13
			c-1.24-3.36-2.57-6.77-3.38-8.94c1.07,10.67-0.45,17.69-5.74,24.86c-0.78-5.88-4.79-10.09-10.18-12.57
			c2.54,3.44,5.48,7.02,6.63,10.45c1.37,4.06-2,7.14-4.5,9.91c-0.49-1.86-2.14-6.66-2.14-6.66c-0.72,3.49-1.14,8.6-2.4,11.89
			c-1.24,3.24-3.47,6.1-5.44,9.42c-6.05-17.58,1.79-37.33,14.11-47.34c3.3-2.68,7.67-4.76,11.95-5.69
			c4.11-0.9,10.97-2.99,13.08-10.4C277.14,65.12,275.73,66.84,271.77,69.55z M243.56,237.19c1.37-3.91,3.44-7.77,5.97-11.05
			c5.44-7.06,11.72-9.87,22.92-7.99c-4.57,1.36-8.67,4.29-10.93,7.95c-2.22,3.59-3.29,9.42-3.29,14.51
			c-1.78-1.68-3.62-3.45-5.19-3.76c0.56,0.64,4.94,6.41,4.09,12.81c-0.63,4.67-2.58,8.84-5.5,12.49c-1.42-3.89-2.92-7.65-4.33-11.47
			l-1.52,0.27c4.95,10.84,2.43,21.35-4.45,29.9C239.24,266.13,238.62,251.23,243.56,237.19z M397.52,339.09
			c-4.62,11.61-12.86,22.19-26.43,32.91c-13.57,10.71-40.51,17.6-54.25,16.46c-3.37-0.28-6.75-0.96-10.1-1.99
			c2.3-2.49,6.9-6.35,11.46-9.22c12.21-2.59,22.34,1.76,22.34,1.76c-2.39-2.5-10.28-5.3-15.7-5.07c0.08-0.02,0.16-0.05,0.24-0.08
			c11.61-3.44,16.3-0.1,23.22-0.54c6.92-0.44,10.74-3.2,10.74-3.2c-14.32,2.32-17.91-1.8-27.67-1.74c3.37-2.69,4.97-7.77,4.97-7.77
			c-0.82,1.15-5.35,6.8-9.57,8.19c-8.94,1.88-18.59,10.63-25.59,15.62c-6.03-2.57-11.86-6.22-17.23-10.67
			c1.99,0.2,4.17,0.13,6.53-0.31c4.85-0.92,9.04-3.12,13.29-5.93c2.35-1.56,4.99-4.06,7.49-5.38c1.23-0.65,2.53-1.2,3.88-1.57
			c1.39-0.38,2.72-0.38,4.13-0.46c-1.47-0.22-3.25-0.65-4.75-0.65c-1.57,0-3.03,0.61-4.6,0.61c1.39-1.41,2.57-3.03,3.48-4.79
			c-4.6,4.14-8.45,9.25-13.85,12.26c-3.88,2.16-8.35,3.08-12.79,3.26c-2.59,0.1-5.31-0.08-7.58-1.31c-0.37-0.36-0.74-0.72-1.1-1.09
			c-4.04-4.06-8.12-7.67-11.69-10.62c0,0,1.74-2.16,3.5-4.12c10.51-3.08,31.69-2.57,46.49-1.07c12.08,1.23,28.54,8.32,37.87,10.31
			c14.54,3.1,16.93-1.64,16.93-1.64c-3.5,0.99-7.65,0.53-12.32-0.68c10.23,1.09,28.83-16.91,31.24-20.69c0,0-7.19,5.45-15.55,10.52
			c-0.15-2.14,1.04-6.22,2.89-11.25c-0.8,1.44-5.34,9.47-6.15,13.17c-6.69,3.81-13.63,6.94-17.94,6.59c0,0,0,0,0,0
			c-4.1-1.37-8.52-3.07-13.21-4.72c11.54-0.53,19.72-10.63,19.72-10.63c-6.77,7.08-28.68,7.32-34.75,6.12c0,0,0,0,0,0
			c-3.51-0.8-7.12-1.41-10.8-1.71c-19.28-1.55-26.81-1.93-36.1-0.34c5.67-2.6,13.76-4.74,22.46-4.98
			c16.17-0.46,27.79-7.97,27.79-7.97c-7.95,4.18-25.59,4.45-25.59,4.45c5.66-2.83,7.14-10.91,7.14-10.91s-4.26,11.81-20.61,12.23
			c-12.5,0.33-23.48,10.84-26.76,14.3c-4.25-3.33-7.11-5.27-7.11-5.27c0.64-2.76,1.38-5.23,2.24-7.55
			c4.98-5.37,14.88-11.13,21.52-13.68c7.47-2.87,13.5-9.58,13.5-9.58s-5.33,4.14-14.78,6.61c-0.29,0.07-0.58,0.16-0.87,0.25
			c3.12-4.29,4.52-10.59,4.52-10.59c-0.93,3.36-5.72,9.72-8.25,12.02c-4.6,2.09-9.18,5.22-12.15,7.43
			c2.88-5.15,6.75-10.33,12.15-17.4c0.36-0.47,0.72-0.91,1.08-1.33c0.19-0.23,0.39-0.44,0.59-0.66c0.17-0.18,0.33-0.36,0.5-0.53
			c0.22-0.23,0.44-0.46,0.66-0.67c0.14-0.14,0.28-0.25,0.42-0.38c0.36-0.33,0.73-0.63,1.09-0.92c0.21-0.17,0.43-0.33,0.64-0.47
			c0.15-0.11,0.31-0.22,0.46-0.31c4.92-3.19,9.42-2.08,12.92-0.21c1.69,0.86,3.43,2.03,5.23,3.53c4.02,2.87,24.85,17.05,52.29,18.17
			c19.96,0.82,37.43-4.79,37.43-4.79c10.73-3.55,15.94-8.5,15.94-8.5S402.13,327.49,397.52,339.09z M362.51,325
			c0.29,0.2,0.38,0.69,0.59,1.1c-7.29,1.4-14.12,1.63-21.51,0c-6.65-10.79-14.48-19.09-28.12-21.59c2.83-1.49,4.84-2.54,6.86-3.6
			c-0.11-0.35-0.21-0.71-0.32-1.06c-5.18,1.56-10.28,3.75-15.57,4.5c-5.55,0.78-11.3,0.18-17.35-0.96c1-0.76,1.88-1.83,3.01-2.22
			c5.95-2.1,11.85-4.52,17.98-5.87c5.72-1.25,11.34,0.45,16.39,3.47c2.71,1.63,5.28,3.49,7.89,5.3
			C342.41,311.02,352.47,318,362.51,325z M360.38,317.71c9.9,1.26,18.41-1.67,27.09-3.83c3.54-0.88,7.31-0.87,11.87-1.35
			C387.05,324,369.32,326.63,360.38,317.71z M338.12,325.1c-9.06,1.48-27.69-6.6-40.59-16.64
			C314.85,303.63,328.52,310.26,338.12,325.1z M390.09,308.5c6.96-11.47,17.27-14.7,30.01-17.94
			C415.5,302.09,404.36,308.5,390.09,308.5z M417.36,285.68c0.92-1.95,1.66-3.53,2.4-5.1c-0.17-0.19-0.34-0.38-0.51-0.57
			c-0.46,0.4-1.04,0.72-1.36,1.21c-3.13,4.74-7.29,8.04-12.67,10.01c-6.88,2.52-12.7,6.78-17.22,12.51
			c-10.29,13.04-33.05,11.11-43.31,2.9c-0.38-0.3-0.53-0.89-0.76-1.39c8.84,0.37,16.88-1.53,24.1-7.17c2.04-1.59,5.59-1.5,8.48-1.68
			c5.47-0.35,5.49-0.2,9.84-3.23c-4.55,0.27-9.09,0.53-14.86,0.87c4.24-6.65,8.98-10.04,15.8-10.49c4.41-0.29,8.94-0.28,13.18-1.35
			c9.61-2.42,15.94-8.73,20.06-18.54c-5.14,4.98-9.23,9.87-14.21,13.53c-5.23,3.84-11.71,4.44-18.71,3.74
			c1.33-2.26,2.57-4.36,3.79-6.43c-2.24,1.54-4.47,3.08-6.73,4.57c-2.93,1.94-5.91,3.8-9.62,6.18c0.43-3.81,0.75-6.64,1.08-9.47
			c-0.39-0.16-0.79-0.31-1.18-0.47c-2.23,8.28-3.32,17.28-11.65,21.91c-2.91,1.62-6.11,3.43-9.29,3.69
			c-4.75,0.39-9.71-0.03-14.39-1.03c-3.52-0.75-6.74-2.96-9.95-5.16c6.11-0.4,11.68-1.43,16.89-4.45c1.65-0.96,4.1-0.58,6.2-0.69
			c1.79-0.1,3.58-0.02,5.58-0.85c-1.82-0.71-3.64-1.42-5.83-2.27c2.15-5.27,8.3-4.3,12.35-8.11c-3.03,0.33-5.24,0.56-7.91,0.85
			c1.01-2.15,1.92-4.09,3.15-6.73c-3.01,0.47-3.18,2.6-3.99,3.99c-4.81,8.22-11.88,13.02-21.34,14.12
			c-2.43,0.28-4.92,0.04-8.53,0.04c2.55-4.06,5.29-5.72,8.21-7.14c3.53-1.71,6.35-4.04,8.08-9.51c-2.78,2.74-4.55,4.48-6.88,6.78
			c-0.38-1.85-0.61-3.01-1-4.92c-4.58,8.13-10.16,13.55-20.25,12.97c3.43-6.57,5.94-12.93,11-17.88c1.39-1.36,2.14-3.39,3.18-5.11
			l-0.14-0.14c-2.43,2.14-4.86,4.29-7.67,6.78c-0.21-2.96-0.37-5.26-0.53-7.56c-0.44-0.02-0.87-0.04-1.31-0.07
			c-0.23,1.73-0.47,3.46-0.68,5.2c-0.57,4.89-1.7,9.57-4.83,13.55c-2.42,3.07-5.29,5.53-9.2,6.34
			c-24.52,5.05-39.9,21.65-52.59,41.65c-1.21,1.9-2.39,3.82-4.16,6.65c-1.38-10.26-0.33-18.65,5.86-26.01
			c7.75-9.22,16.74-16.72,28.04-21.18c6.75-2.67,11.69-7.34,15.75-13.26c1.48-2.15,3.75-3.87,5.94-5.4c4.55-3.17,5.2-3.84,6.3-8.57
			c-2.54,2.39-5.12,4.82-7.69,7.25c-0.35-0.25-0.71-0.51-1.06-0.76c0.2-1.74,0.4-3.48,0.59-5.23c-5.03,8.53-7.97,18.48-18.85,22.16
			c-0.15-2.23-0.28-4.12-0.41-6c-1.09,10.29-10.68,10.36-16.65,14.81c-0.92-10.43,3.16-17.66,12.05-21.73
			c2.88-1.32,5.87-2.43,8.65-3.93c2.1-1.14,3.95-2.74,5.42-4.8c-5.04,2.18-10.1,4.29-15.1,6.55c-8.17,3.7-13.25,9.94-13.71,19
			c-0.39,7.59-4.92,12.09-10.08,16.63c-0.74-1.09-1.25-1.85-1.75-2.58c-1.98,4.47-3.89,8.77-5.8,13.06
			c-0.42-0.19-0.84-0.37-1.26-0.56c-1.13-16.72,5.08-30.62,17.44-41.74c13.12-11.81,28.67-18.59,46.33-19.84
			c8.94-0.63,17.59,1.71,26.11,4.27c8.9,2.67,17.8,5.29,26.68,8.02c5.2,1.6,10.26,1.34,15.59,0.2c4.66-1,9.59-1.05,14.4-1.03
			c9.68,0.06,15.62-3.59,18.96-12.7c-6.33,8.56-14.14,12.9-25.75,8.98c5.27-4.83,10.34-9.5,11.44-16.9c-0.8,0.95-1.81,1.8-2.37,2.88
			c-2.93,5.65-7.52,9.61-12.79,12.9c-7.49,4.68-12.99,4.93-21.57,0.9c2.75-0.88,5.34-1.67,7.9-2.55c0.34-0.11,0.54-0.6,1.78-2.05
			c-11.83,3.04-22.25,1.45-32.84-2.82c4.23-1.93,7.9-4.18,11.89-5.27c3.76-1.03,7.87-1.22,11.8-1.09c8.18,0.27,14.18-1.47,19.1-6.21
			c-0.34-0.17-0.81-0.58-1-0.47c-6.88,3.88-14.13,5.24-21.97,3.81c-4.32-0.79-8.29,0.81-12.18,2.65
			c-7.06,3.34-14.34,4.59-22.17,1.82c5.93-5.1,9.47-12.52,18-13.94c-0.24-0.47-0.48-0.94-0.72-1.41c-2.71,0.75-5.42,1.51-8.98,2.49
			c0.57-2.44,1.08-4.6,1.59-6.76c-0.4-0.14-0.8-0.27-1.2-0.41c-1.51,3.91-2.61,8.05-4.63,11.67c-2.22,3.99-6.03,6.24-11.29,6.7
			c0.65-2.26,1.2-4.15,1.74-6.05c-0.24-0.15-0.49-0.3-0.73-0.46c-0.76,1-1.33,2.26-2.31,2.95c-2.18,1.53-4.41,3.48-6.89,4
			c-6.97,1.47-14.08,2.31-21.73,3.49c4.96-9.05,11.41-15.72,22.08-17.36c3.11-0.48,6.27-1.04,9.2-2.13
			c1.97-0.73,3.57-2.43,4.98-4.36c-7.86,4.86-16.91,4.22-25.3,6.24c4.07-5.47,9.19-9.68,15.65-11.87c10.9-3.7,20.77-0.8,29.93,5.44
			c1.92,1.3,3.7,2.8,5.56,4.19c7.68,5.75,16.31,7.2,25.17,4.03c13.12-4.7,24.88-2.01,36.09,5.21c8.43,5.43,16.02,11.74,20.19,21.26
			c0.42,0.96,0.85,1.94,1.12,2.96C430.53,276.93,429.78,282.05,417.36,285.68z M434.49,267.64c-1.96-4.4-3.49-7.85-5.02-11.27
			c3.56-2.34,6.86-4.51,11.14-7.32C439.18,255.62,437.1,261.08,434.49,267.64z M444.94,227.33c-0.75,8.76-4.89,16.12-12.34,21.2
			c-4.68,3.18-6.92,2.91-11.26-0.75c-3.05-2.57-6.13-5.11-9.28-7.73c5.03-1.6,9.86-3.2,14.72-4.67c4.95-1.5,10.4-1.75,15.39-6.72
			c-4.67,1.26-8.11,2.18-12.9,3.47c1.89-3.8,3.14-6.31,4.85-9.74c-2.96,1.06-3.73,2.97-4.58,4.66c-3.38,6.68-9.03,9.27-16.17,8.75
			c-3.75-0.27-7.52-0.92-11.18-1.81c-5.31-1.29-10.53-2.95-15.76-4.44c0.93-1.14,2.02-2.45,3.81-4.63
			c-5.2,2.23-9.32,3.99-13.67,5.85c-0.25-4.02-0.06-7.36-0.78-10.49c-0.69-3.01-2.33-5.81-3.63-8.87c4.36-0.74,7.71,1.64,10.92,3.89
			c7.94,5.56,16.56,9,26.21,10.35c7.16,1.01,13.65-0.19,18.94-4.85c5.03-4.43,9.31-9.71,13.89-14.64c0.92-1,1.71-2.12,2.98-3.72
			C445.08,211.31,445.62,219.37,444.94,227.33z"/>
		
			<linearGradient id="SVGID_00000008836601077392571480000003969509466864428458_" gradientUnits="userSpaceOnUse" x1="392.2357" y1="274.4987" x2="392.2357" y2="272.5727">
			<stop  offset="0" style="stop-color:#050606"/>
			<stop  offset="1" style="stop-color:#6C6D6F"/>
		</linearGradient>
		<path style="fill:url(#SVGID_00000008836601077392571480000003969509466864428458_);" d="M392.53,272.57
			c-0.38,0.64-0.76,1.28-1.14,1.93c0.56-0.38,1.12-0.77,1.68-1.15C392.89,273.09,392.71,272.83,392.53,272.57z"/>
	</g>
	<g>
		<path class="st2" d="M397.43,266.27L397.43,266.27c16.58-1,14.66-9.59,16.64-14.39l0,0l0,0
			C406.35,255.44,397.36,251.06,397.43,266.27z"/>
		<path class="st2" d="M128.87,166.1L128.87,166.1c-8.28-14.4-15.11-8.85-20.29-8.49l0,0l0,0
			C115.21,162.93,115.29,172.93,128.87,166.1z"/>
		<path class="st2" d="M125.46,116.46L125.46,116.46c4.03-16.11-4.73-16.86-8.72-20.2l0,0l0,0
			C117.82,104.69,110.94,111.95,125.46,116.46z"/>
		<path class="st2" d="M214.04,207.55L214.04,207.55c1.07-13.66-6.16-13.07-9.86-15.24l0,0l0,0
			C206.21,199.02,201.6,205.87,214.04,207.55z"/>
		<path class="st2" d="M104.74,186.43L104.74,186.43c1.24-11.58-4.92-11.25-8.01-13.17l0,0l0,0
			C98.3,179.01,94.22,184.71,104.74,186.43z"/>
		<path class="st2" d="M144.92,239.45L144.92,239.45c6.92-9.36,1.44-12.19-0.25-15.42v0l0,0
			C143.11,229.78,136.71,232.65,144.92,239.45z"/>
		<path class="st2" d="M392.31,149.05L392.31,149.05c10.17,7.95,13.47,1.97,17.1,0.19h0l0,0
			C403.08,147.34,400.1,140.16,392.31,149.05z"/>
		<path class="st2" d="M365.89,141.1L365.89,141.1c8.53-4.46,5.48-8.54,5.39-11.55v0l0,0C368.05,133.27,362.25,133.08,365.89,141.1z
			"/>
		<path class="st2" d="M344.54,112.04L344.54,112.04c7.92-10,2.02-13.3,0.28-16.89v0l0,0C342.91,101.38,335.8,104.29,344.54,112.04z
			"/>
		<path class="st2" d="M313.28,125.62L313.28,125.62c11.31-5.91,7.26-11.32,7.15-15.31v0l0,0
			C316.14,115.23,308.46,114.98,313.28,125.62z"/>
		<path class="st2" d="M298.36,133.44L298.36,133.44c8.2-4.28,5.27-8.21,5.18-11.1v0l0,0C300.43,125.9,294.86,125.72,298.36,133.44z
			"/>
		<path class="st2" d="M335.01,93.12L335.01,93.12c8-4.18,5.14-8.01,5.05-10.83l0,0l0,0C337.03,85.77,331.6,85.59,335.01,93.12z"/>
		<path class="st2" d="M323.66,47.2L323.66,47.2c1.24-8.94-3.54-8.83-5.89-10.4v0l0,0C318.85,41.29,315.56,45.61,323.66,47.2z"/>
		<path class="st2" d="M330.02,50.2L330.02,50.2c5.15-2.48,3.42-4.97,3.42-6.75v0l0,0C331.45,45.59,328.01,45.37,330.02,50.2z"/>
		<path class="st2" d="M324.27,271.29L324.27,271.29c10.67-0.64,9.43-6.17,10.71-9.26l0,0l0,0
			C330.01,264.32,324.23,261.5,324.27,271.29z"/>
		<path class="st2" d="M332.55,213.26L332.55,213.26c11.41-0.69,10.09-6.6,11.46-9.91v0l0,0C338.7,205.8,332.5,202.79,332.55,213.26
			z"/>
		<path class="st2" d="M375.17,344.55L375.17,344.55c11.21-3.16,8.62-8.76,9.26-12.34l0,0l0,0
			C379.67,335.81,372.86,334.14,375.17,344.55z"/>
		<path class="st2" d="M355.99,346.75L355.99,346.75c11.21-3.16,8.62-8.76,9.26-12.34l0,0l0,0
			C360.49,338,353.67,336.34,355.99,346.75z"/>
		<path class="st2" d="M324.74,336.23L324.74,336.23c6.79,10.82,11.87,6.36,15.84,5.93l0,0v0
			C335.34,338.26,334.98,330.58,324.74,336.23z"/>
	</g>
</g>
</svg>
